<?xml version="1.0" encoding="UTF-8" standalone="no"?>
<svg
   xmlns:dc="http://purl.org/dc/elements/1.1/"
   xmlns:cc="http://creativecommons.org/ns#"
   xmlns:rdf="http://www.w3.org/1999/02/22-rdf-syntax-ns#"
   xmlns:svg="http://www.w3.org/2000/svg"
   xmlns="http://www.w3.org/2000/svg"
   viewBox="0 0 258.66666 258.66666"
   height="258.66666"
   width="258.66666"
   xml:space="preserve"
   id="svg2"
   version="1.1"><metadata
     id="metadata8"><rdf:RDF><cc:Work
         rdf:about=""><dc:format>image/svg+xml</dc:format><dc:type
           rdf:resource="http://purl.org/dc/dcmitype/StillImage" /></cc:Work></rdf:RDF></metadata><defs
     id="defs6" /><g
     transform="matrix(1.3333333,0,0,-1.3333333,0,258.66667)"
     id="g10"><g
       transform="scale(0.1)"
       id="g12"><path
         id="path14"
         style="fill:#ffffff;fill-opacity:0;fill-rule:evenodd;stroke:none"
         d="M 2.59766,1933.23 H 1930.16 V 5.66797 H 2.59766 V 1933.23" /><path
         id="path16"
         style="fill:#ed192d;fill-opacity:1;fill-rule:evenodd;stroke:none"
         d="m 1599.27,959.305 h 127.71 l 20.66,-51.129 H 1575.3 l -27.53,-58.719 h -76.11 l 188.77,386.833 h 52.66 l 188.72,-386.833 h -76.07 l -139.01,298.673 -87.46,-188.825 v 0" /><path
         id="path18"
         style="fill:#ed192d;fill-opacity:1;fill-rule:evenodd;stroke:none"
         d="m 158.539,956.457 h 127.707 l 20.668,-51.144 H 134.566 L 107.043,846.609 H 30.9453 L 219.703,1233.43 h 52.656 L 461.074,846.609 H 385.016 L 246,1145.29 158.539,956.457 v 0" /><path
         id="path20"
         style="fill:#ed192d;fill-opacity:1;fill-rule:evenodd;stroke:none"
         d="m 876.211,956.457 h 127.709 l 20.67,-51.144 H 852.238 l -27.523,-58.704 h -76.09 l 188.746,386.821 h 52.656 L 1178.75,846.609 H 1102.7 L 963.668,1145.29 876.211,956.457 v 0" /><path
         id="path22"
         style="fill:#ed192d;fill-opacity:1;fill-rule:evenodd;stroke:none"
         d="M 390.016,1234.67 578.637,847.836 h 52.718 l 188.68,386.834 H 744.012 L 604.992,930.324 465.973,1234.67 h -75.957 v 0" /><path
         id="path24"
         style="fill:#ed192d;fill-opacity:1;fill-rule:evenodd;stroke:none"
         d="m 1284.14,702.613 260.46,532.057 h -75.94 l -144.8,-310.049 -133.3,310.049 h -76.01 l 171.59,-386.834 -74.76,-145.223 h 72.76 v 0" /></g></g></svg>