<?xml version="1.0" encoding="UTF-8" standalone="no"?>
<svg
   xmlns:dc="http://purl.org/dc/elements/1.1/"
   xmlns:cc="http://creativecommons.org/ns#"
   xmlns:rdf="http://www.w3.org/1999/02/22-rdf-syntax-ns#"
   xmlns:svg="http://www.w3.org/2000/svg"
   xmlns="http://www.w3.org/2000/svg"
   viewBox="0 0 793.70801 168.07333"
   height="168.07333"
   width="793.70801"
   xml:space="preserve"
   id="svg2"
   version="1.1"><metadata
     id="metadata8"><rdf:RDF><cc:Work
         rdf:about=""><dc:format>image/svg+xml</dc:format><dc:type
           rdf:resource="http://purl.org/dc/dcmitype/StillImage" /></cc:Work></rdf:RDF></metadata><defs
     id="defs6"><clipPath
       id="clipPath18"
       clipPathUnits="userSpaceOnUse"><path
         id="path16"
         d="M 0,126.055 H 595.281 V 0 H 0 Z" /></clipPath></defs><g
     transform="matrix(1.3333333,0,0,-1.3333333,0,168.07333)"
     id="g10"><g
       id="g12"><g
         clip-path="url(#clipPath18)"
         id="g14"><g
           transform="translate(206.9565,108.5303)"
           id="g20"><path
             id="path22"
             style="fill:#000000;fill-opacity:1;fill-rule:evenodd;stroke:none"
             d="m 0,0 h 6.908 v -22.187 h 0.165 c 2.274,5.041 8.207,7.152 13.248,7.152 11.052,0 14.461,-6.338 14.461,-15.344 v -27.633 h -6.904 v 28.444 c 0,5.108 -3.252,8.439 -8.533,8.439 -8.372,0 -12.437,-5.608 -12.437,-13.153 v -23.73 H 0 Z m 77.691,-44.683 c -1.866,-9.265 -8.533,-14.305 -17.96,-14.305 -13.406,0 -19.746,9.264 -20.152,22.106 0,12.583 8.288,21.847 19.746,21.847 14.875,0 19.424,-13.882 19.017,-24.041 H 46.891 c -0.244,-7.316 3.904,-13.817 13.083,-13.817 5.692,0 9.674,2.764 10.895,8.21 z m -6.66,11.703 c -0.326,6.567 -5.282,11.851 -12.113,11.851 -7.23,0 -11.537,-5.445 -12.027,-11.851 z m 42.825,3.494 c -1.058,5.267 -4.711,8.357 -10.4,8.357 -9.996,0 -13.086,-7.869 -13.086,-16.403 0,-7.721 3.494,-15.361 12.272,-15.361 6.66,0 10.644,3.901 11.54,10.241 h 7.069 c -1.546,-10.241 -7.965,-16.336 -18.527,-16.336 -12.842,0 -19.67,8.941 -19.67,21.456 0,12.583 6.502,22.497 19.832,22.497 9.506,0 17.147,-4.468 18.124,-14.451 z M 127.344,0 h 6.909 v -34.364 l 19.182,18.356 h 9.263 l -16.661,-15.269 17.879,-26.735 h -8.778 l -14.383,21.943 -6.502,-6.014 v -15.929 h -6.909 z m 61.442,0 h 25.437 c 11.537,0 17.795,-6.419 17.795,-17.146 0,-10.721 -6.258,-17.218 -17.795,-17.136 h -17.72 v -23.73 h -7.717 z m 7.717,-27.787 h 15.115 c 8.699,-0.08 12.682,3.734 12.682,10.641 0,6.907 -3.983,10.644 -12.682,10.644 h -15.115 z m 57.094,12.752 c 13.327,0 20.396,-9.669 20.396,-22.011 0,-12.27 -7.069,-21.942 -20.396,-21.942 -13.327,0 -20.4,9.672 -20.4,21.942 0,12.342 7.073,22.011 20.4,22.011 m 0,-37.858 c 7.232,0 13.083,5.69 13.083,15.847 0,10.229 -5.851,15.917 -13.083,15.917 -7.232,0 -13.083,-5.688 -13.083,-15.917 0,-10.157 5.851,-15.847 13.083,-15.847 m 33.805,44.442 h -6.909 V 0 h 6.909 z m -6.909,-7.557 h 6.909 v -42.004 h -6.909 z m 15.604,0 h 6.502 v -6.665 h 0.163 c 2.924,5.199 7.635,7.638 13.652,7.638 11.052,0 14.461,-6.338 14.461,-15.344 v -27.633 h -6.903 v 28.444 c 0,5.108 -3.253,8.439 -8.535,8.439 -8.368,0 -12.431,-5.608 -12.431,-13.153 v -23.73 h -6.909 z m 52.742,0 h 8.368 v -6.096 h -8.368 v -26.077 c 0,-3.167 0.897,-3.735 5.203,-3.735 h 3.165 v -6.096 h -5.281 c -7.154,0 -9.996,1.461 -9.996,9.183 v 26.725 h -7.151 v 6.096 h 7.151 v 12.594 h 6.909 z m 10.883,13.084 c 2.932,0 5.268,-2.385 5.268,-5.363 0,-3.027 -2.336,-5.386 -5.29,-5.386 -2.934,0 -5.316,2.359 -5.316,5.386 0,2.978 2.382,5.363 5.316,5.363 z M 359.7,-3.76 c -2.362,0 -4.291,-2.024 -4.291,-4.527 0,-2.55 1.929,-4.552 4.313,-4.552 2.384,-0.024 4.292,2.002 4.292,4.527 0,2.528 -1.908,4.552 -4.292,4.552 z m -1.001,-7.651 h -0.955 v 5.983 c 0.502,0.074 0.977,0.145 1.693,0.145 0.906,0 1.503,-0.191 1.858,-0.454 0.355,-0.261 0.551,-0.667 0.551,-1.24 0,-0.785 -0.527,-1.261 -1.166,-1.454 v -0.048 c 0.523,-0.094 0.879,-0.571 0.998,-1.455 0.141,-0.927 0.288,-1.284 0.38,-1.477 h -1.001 c -0.141,0.193 -0.286,0.739 -0.405,1.529 -0.14,0.759 -0.523,1.047 -1.288,1.047 h -0.665 z m 0,3.315 h 0.692 c 0.784,0 1.452,0.285 1.452,1.024 0,0.525 -0.383,1.049 -1.452,1.049 -0.312,0 -0.526,-0.024 -0.692,-0.049 z m -373.403,-9.378 c -1.627,8.209 -8.21,12.355 -16.256,12.355 -13.815,0 -19.667,-11.378 -19.667,-23.474 0,-13.247 5.852,-24.3 19.751,-24.3 10.155,0 16.008,7.154 16.742,16.742 h 7.717 C -7.88,-50.618 -16.9,-59.396 -31.53,-59.396 c -18.042,0 -26.817,13.331 -26.817,30.234 0,16.811 9.589,30.543 27.471,30.543 12.107,0 22.103,-6.5 23.892,-18.855 z" /></g><g
           transform="translate(177.1055,37.1943)"
           id="g24"><path
             id="path26"
             style="fill:#000000;fill-opacity:1;fill-rule:evenodd;stroke:none"
             d="m 0,0 c 5.805,0 8.749,-4.604 8.749,-9.569 0,-4.963 -2.944,-9.566 -8.749,-9.566 -5.806,0 -8.748,4.603 -8.748,9.566 C -8.748,-4.604 -5.806,0 0,0 m 0,-17.088 c 4.453,0 6.318,3.836 6.318,7.519 0,3.685 -1.865,7.523 -6.318,7.523 -4.452,0 -6.318,-3.838 -6.318,-7.523 0,-3.683 1.866,-7.519 6.318,-7.519 m 12.686,16.654 h 12 v -2.05 h -9.567 v -5.802 h 8.389 v -2.046 h -8.389 v -8.367 h -2.433 z m 20.033,-2.05 h -6.087 v 2.05 h 14.605 v -2.05 h -6.09 v -16.215 h -2.428 z m 28.883,-16.215 h -2.534 l -4.171,15.345 h -0.051 l -4.222,-15.345 h -2.531 l -4.681,18.265 h 2.483 l 3.578,-15.198 h 0.053 l 4.094,15.198 h 2.635 l 4.042,-15.198 h 0.049 l 3.713,15.198 h 2.427 z m 11.583,18.265 h 2.686 l 7.135,-18.265 H 80.32 L 78.325,-13.2 H 70.6 l -2.047,-5.499 h -2.505 z m -1.819,-10.718 h 6.194 l -3.046,8.516 h -0.049 z m 14.405,10.718 h 8.594 c 3.426,0 5.553,-1.866 5.553,-4.786 0,-2.201 -0.975,-4.015 -3.172,-4.628 v -0.055 c 2.124,-0.406 2.557,-1.969 2.734,-3.758 0.153,-1.791 0.05,-3.784 1.078,-5.038 h -2.711 c -0.693,0.741 -0.309,2.709 -0.667,4.501 -0.26,1.791 -0.692,3.303 -3.045,3.303 h -5.936 v -7.804 h -2.428 z m 7.494,-8.418 c 2.278,0 4.22,0.591 4.22,3.248 0,1.792 -0.971,3.12 -3.245,3.12 h -6.041 v -6.368 z m 11,8.418 h 12.611 v -2.05 h -10.178 v -5.802 h 9.489 v -2.046 h -9.489 v -6.321 h 10.26 v -2.046 h -12.693 z m 28.833,-2.05 h -6.09 v 2.05 h 14.608 v -2.05 h -6.09 v -16.215 h -2.428 z m 11.51,2.05 h 12.611 v -2.05 h -10.18 v -5.802 h 9.491 v -2.046 h -9.491 v -6.321 h 10.256 v -2.046 h -12.687 z m 29.443,-5.501 c -0.512,2.581 -2.582,3.889 -5.113,3.889 -4.352,0 -6.193,-3.583 -6.193,-7.396 0,-4.166 1.841,-7.646 6.214,-7.646 3.199,0 5.043,2.25 5.274,5.269 h 2.428 c -0.458,-4.555 -3.299,-7.316 -7.905,-7.316 -5.677,0 -8.444,4.195 -8.444,9.516 0,5.295 3.021,9.619 8.647,9.619 3.812,0 6.961,-2.046 7.52,-5.935 z m 6.598,5.501 h 2.43 v -7.852 h 9.622 v 7.852 h 2.433 v -18.265 h -2.433 v 8.367 h -9.622 v -8.367 h -2.43 z m 19.42,0 h 2.582 l 9.622,-14.812 h 0.052 v 14.812 h 2.3 v -18.265 h -2.662 l -9.543,14.657 h -0.045 v -14.657 h -2.306 z M 227.263,0 c 5.803,0 8.748,-4.604 8.748,-9.569 0,-4.963 -2.945,-9.566 -8.748,-9.566 -5.805,0 -8.751,4.603 -8.751,9.566 0,4.965 2.946,9.569 8.751,9.569 m 0,-17.088 c 4.451,0 6.318,3.836 6.318,7.519 0,3.685 -1.867,7.523 -6.318,7.523 -4.451,0 -6.32,-3.838 -6.32,-7.523 0,-3.683 1.869,-7.519 6.32,-7.519 m 12.456,16.654 h 2.431 v -16.219 h 9.668 v -2.046 H 239.719 Z M 262.18,0 c 5.806,0 8.746,-4.604 8.746,-9.569 0,-4.963 -2.94,-9.566 -8.746,-9.566 -5.807,0 -8.748,4.603 -8.748,9.566 0,4.965 2.941,9.569 8.748,9.569 m 0,-17.088 c 4.452,0 6.319,3.836 6.319,7.519 0,3.685 -1.867,7.523 -6.319,7.523 -4.451,0 -6.323,-3.838 -6.323,-7.523 0,-3.683 1.872,-7.519 6.323,-7.519 m 26.349,0.668 c -1.405,-1.921 -3.708,-2.715 -5.857,-2.715 -5.453,0 -8.697,4.453 -8.697,9.21 0,5.321 2.913,9.925 8.697,9.925 3.991,0 7.159,-1.792 7.851,-6.063 h -2.428 c -0.488,2.762 -2.713,4.017 -5.423,4.017 -4.429,0 -6.269,-3.838 -6.269,-7.751 0,-3.811 2.203,-7.291 6.269,-7.291 3.763,0 6.011,2.635 5.857,5.961 h -5.832 v 2.047 h 8.005 v -9.619 h -1.533 z m 6.833,15.986 h 2.431 V -18.7 h -2.431 z m 7.492,0 h 12.608 v -2.05 h -10.174 v -5.802 h 9.483 v -2.046 h -9.483 v -6.321 h 10.254 v -2.046 h -12.688 z m 27.168,-5.344 c -0.285,2.606 -2.019,3.732 -4.53,3.732 -2.046,0 -4.091,-0.742 -4.091,-3.122 0,-2.253 2.916,-2.587 5.856,-3.247 2.919,-0.665 5.835,-1.688 5.835,-5.273 0,-3.889 -3.811,-5.447 -7.139,-5.447 -4.091,0 -7.544,1.994 -7.544,6.446 h 2.302 c 0,-3.071 2.559,-4.399 5.321,-4.399 2.202,0 4.628,0.69 4.628,3.324 0,2.507 -2.916,2.939 -5.833,3.58 -2.91,0.643 -5.854,1.486 -5.854,4.838 0,3.712 3.299,5.346 6.619,5.346 3.738,0 6.575,-1.764 6.736,-5.778 z m 14.279,5.344 h 2.431 v -16.219 h 9.668 v -2.046 h -12.099 z m 17.318,-2.05 h -6.09 v 2.05 h 14.608 v -2.05 h -6.088 v -16.215 h -2.43 z m 11.512,2.05 h 6.267 c 5.626,0 8.769,-2.815 8.769,-8.699 0,-6.113 -2.685,-9.566 -8.769,-9.566 h -6.267 z m 2.428,-16.219 h 4.045 c 1.66,0 6.139,0.462 6.139,7.185 0,4.353 -1.615,6.984 -6.09,6.984 h -4.094 z m 14.635,-2.046 h 2.835 v 2.836 h -2.835 z M -14.71,-5.778 c -0.28,2.606 -2.018,3.732 -4.526,3.732 -2.048,0 -4.095,-0.742 -4.095,-3.122 0,-2.253 2.915,-2.587 5.859,-3.247 2.916,-0.665 5.831,-1.688 5.831,-5.273 0,-3.889 -3.809,-5.447 -7.134,-5.447 -4.096,0 -7.549,1.994 -7.549,6.446 h 2.302 c 0,-3.071 2.557,-4.399 5.322,-4.399 2.2,0 4.629,0.69 4.629,3.324 0,2.507 -2.914,2.939 -5.832,3.58 -2.915,0.643 -5.859,1.486 -5.859,4.838 0,3.712 3.302,5.346 6.627,5.346 3.735,0 6.575,-1.764 6.731,-5.778 z" /></g><path
           id="path28"
           style="fill:#e79197;fill-opacity:1;fill-rule:evenodd;stroke:none"
           d="M 126.594,109.936 H 21.947 v -91.9 h 104.647 z" /><g
           transform="translate(89.9053,53.3994)"
           id="g30"><path
             id="path32"
             style="fill:#3f3a86;fill-opacity:1;fill-rule:evenodd;stroke:none"
             d="m 0,0 c -2.163,-0.296 -6.4,-0.722 -8.444,-0.932 -1.863,-0.19 -3.87,-0.282 -5.963,-0.403 -1.871,-0.108 -3.81,-0.018 -5.786,-0.032 -1.971,-0.014 -3.988,-0.011 -5.982,0.227 -4.081,0.492 -4.927,1.064 -6.025,1.197 -2.262,0.279 -3.98,0.693 -5.891,1.104 -1.564,0.34 -3.177,0.697 -4.139,0.731 -0.106,0.106 -0.452,0.78 -0.513,0.923 -1.032,2.446 -1.015,2.148 -2.068,5.684 -0.519,1.742 -1.203,5.36 -1.562,7.687 -0.287,1.874 -0.671,2.418 -0.806,2.864 -0.54,1.804 -0.354,2.878 -0.447,4.837 -0.093,1.951 -0.186,6.729 -0.093,8.702 0.148,3.119 0.342,3.51 0.786,5.414 0.45,1.915 1.411,3.886 2.234,5.65 0.716,1.53 1.09,2.93 2.138,4.29 1.202,1.561 1.495,2.258 2.099,2.828 0.049,0.049 0.504,0.161 0.57,0.168 1.476,0.484 2.821,0.638 3.594,0.874 0.177,0.019 0.95,-0.065 1.133,-0.065 0.332,0 2.461,-0.067 5.63,-0.147 1.656,-0.042 3.59,-0.195 5.703,-0.24 1.892,-0.042 3.926,-0.063 6.024,-0.099 1.914,-0.032 3.883,0.055 5.843,0.032 1.808,-0.021 3.608,-0.168 5.359,-0.175 1.887,-0.009 3.716,0.067 5.424,0.081 1.927,0.017 3.697,0.095 5.239,0.15 2.346,0.081 4.168,0.076 5.133,0.268 1.856,0.37 3.248,0.565 4.477,0.565 0.328,-0.087 0.465,-0.206 0.744,-0.334 1.039,-0.476 2.48,-1.546 2.48,-1.546 0,-0.673 -0.244,-5.122 0.077,-8.212 0.185,-1.772 0.496,-3.774 0.768,-5.833 0.257,-1.942 0.379,-3.493 0.653,-5.37 0.275,-1.897 0.954,-4.593 1.188,-6.107 0.423,-2.754 0.54,-1.269 0.927,-3.572 0.499,-2.976 0.217,-2.667 0.552,-6.098 C 21.242,13.167 20.919,9.033 20.607,7.052 20.286,5.029 19.442,3.471 18.788,3.191 17.425,2.609 13.011,1.987 13.89,2.128 11.652,1.769 11.832,2.038 10.487,1.769 6.979,1.068 6.226,1.224 3.849,0.997 1.622,0.785 3.324,0.606 0.728,0.248 0.533,0.22 0.265,0.036 0,0" /></g><g
           transform="translate(53.1831,100.9482)"
           id="g34"><path
             id="path36"
             style="fill:#ffffff;fill-opacity:1;fill-rule:evenodd;stroke:none"
             d="M 0,0 C 0.775,1.715 1.453,1.59 3.085,1.704 4.032,1.771 5.205,1.507 6.757,1.271 7.789,1.115 7.798,1.422 9.154,1.052 10.169,0.773 10.36,0.841 11.929,0.603 c 1.23,-0.186 4.963,-1.004 6.413,-1.156 1.308,-0.137 2.686,-0.826 4.093,-0.93 1.334,-0.101 2.701,-0.215 4.056,-0.283 1.362,-0.068 2.723,-0.108 4.04,-0.136 1.407,-0.032 2.775,0.251 4.053,0.268 1.417,0.018 2.72,0.27 3.874,0.354 1.588,0.115 2.882,0.355 3.73,0.61 1.607,0.488 2.931,0.407 4.061,0.21 1.473,-0.259 2.45,-0.87 3.018,-2.135 0.457,-1.015 0.182,-1.995 0.448,-3.819 0.13,-0.872 -0.28,-2.327 -0.301,-4.111 -0.013,-1.207 0.05,-2.575 0.064,-4.023 0.012,-1.315 0.212,-2.7 0.241,-4.104 0.028,-1.362 0.013,-2.74 0.052,-4.089 0.037,-1.42 0.111,-2.807 0.154,-4.099 0.046,-1.45 0.078,-2.788 0.119,-3.927 0.086,-2.338 0.432,-1.755 0.21,-3.909 -0.201,-1.964 0.435,-2.33 -1.432,-3.795 -0.761,-0.596 -1.923,-1.336 -3.59,-1.496 -0.5,-0.046 -1.791,-0.452 -3.71,-0.928 -1.058,-0.261 -2.311,-0.54 -3.713,-0.854 -1.134,-0.257 -2.432,-0.439 -3.752,-0.696 -1.183,-0.231 -2.421,-0.362 -3.729,-0.574 -1.185,-0.191 -2.472,-0.237 -3.742,-0.398 -1.193,-0.152 -2.448,-0.033 -3.703,-0.142 -1.155,-0.1 -2.33,-0.209 -3.523,-0.262 -0.971,-0.045 0.021,-0.318 -0.504,-0.491 -1.195,-0.393 -1.516,-0.251 -3.794,-0.213 -1.141,0.018 -2.266,0.01 -3.67,0.088 -1.211,0.069 -2.564,0.177 -3.827,0.318 -1.268,0.14 -2.49,0.519 -3.673,0.753 -1.346,0.266 -2.698,0.251 -3.745,0.668 -1.34,0.535 -2.423,1.085 -2.901,1.933 -0.384,0.677 -0.479,2.285 -0.626,4.015 -0.094,1.114 -0.019,2.408 -0.031,3.828 -0.009,1.176 -0.225,2.443 -0.189,3.767 0.034,1.236 0.019,2.529 0.088,3.843 0.062,1.237 0.12,2.502 0.209,3.77 0.088,1.26 0.445,2.505 0.553,3.755 0.108,1.262 0.345,2.495 0.465,3.709 0.128,1.247 0.096,2.474 0.231,3.626 0.153,1.286 0.471,2.479 0.628,3.6 0.193,1.386 0.058,2.674 0.244,3.703 C -0.848,-1.319 -0.25,-0.229 0,0" /></g><g
           transform="translate(117.271,29.4248)"
           id="g38"><path
             id="path40"
             style="fill:#3f3a86;fill-opacity:1;fill-rule:evenodd;stroke:none"
             d="m 0,0 c -0.805,-0.269 -3.781,-1.001 -6.31,-0.938 -1.343,0.031 -3.291,-0.171 -5.699,-0.273 -1.706,-0.072 -3.486,0.233 -5.598,0.112 -1.724,-0.097 -3.572,-0.074 -5.502,-0.203 -1.916,-0.129 -3.916,-0.365 -5.98,-0.519 -1.866,-0.146 -2.931,0.075 -4.872,-0.09 -1.963,-0.168 -3.493,0.467 -5.491,0.278 -1.811,-0.173 -4.943,-0.209 -6.751,-0.397 -1.854,-0.195 -3.98,-0.93 -5.796,-1.144 -1.876,-0.217 -3.415,-0.079 -5.218,-0.317 -1.882,-0.25 -4.024,-0.862 -5.782,-1.13 -1.86,-0.283 -3.635,-0.586 -5.307,-0.891 -1.8,-0.327 -3.509,-0.512 -5.032,-0.864 -1.402,-0.321 -2.636,-0.808 -3.751,-1.147 -2.652,-0.81 -4.718,-1.285 -6.328,-1.513 -3.447,-0.485 -4.991,0.22 -5.937,1.614 -0.842,1.235 -1.137,3.233 -1.368,4.96 -0.278,2.092 -0.19,1.131 -0.552,3.058 -0.532,2.836 -0.998,4.643 0.703,6.434 0.89,0.937 2.468,2.027 4.289,2.852 2.619,1.405 1.585,1.21 5.297,2.706 1.474,0.592 3.283,1.23 5.426,1.929 1.663,0.543 3.595,0.899 5.688,1.464 1.725,0.468 3.597,0.931 5.631,1.395 1.798,0.408 3.683,0.973 5.73,1.366 1.814,0.346 3.727,0.684 5.744,1.008 1.939,0.312 3.982,0.537 6.111,0.817 1.894,0.248 3.868,0.426 5.917,0.646 1.817,0.194 3.679,0.543 5.619,0.711 1.887,0.163 4.504,-0.028 6.51,0.105 1.775,0.116 2.932,0.475 4.804,0.566 1.826,0.09 3.698,0.124 5.617,0.186 1.875,0.058 3.792,0.109 5.755,0.138 1.639,0.027 3.305,0.12 5.005,0.127 2.757,0.009 5.446,-0.15 6.842,-1.049 C 1.5,20.661 1.265,19.87 1.349,17.243 1.447,14.279 1.169,15.71 1.65,12.782 2.164,9.625 2.23,6.861 2.442,4.112 2.552,2.688 1.602,1.45 0,0" /></g><g
           transform="translate(76.4858,79.71)"
           id="g42"><path
             id="path44"
             style="fill:#3f3a86;fill-opacity:1;fill-rule:evenodd;stroke:none"
             d="M 0,0 3.066,-1.725 2.064,1.173 Z M 10.964,7.108 1.821,4.1 1.645,4.084 -10.542,5.923 -0.779,0.437 1.809,1.906 1.587,2.546 2.31,2.795 2.485,2.29 Z m -21.96,5.327 h -3.147 v -3.14 h 3.147 z m -6.554,-23.225 -1.603,-3.139 -0.347,-0.683 -0.343,0.174 -3.486,1.774 -0.343,0.175 0.175,0.342 1.776,3.481 0.176,0.341 0.34,-0.174 1.329,-0.674 0.466,0.845 0.673,-0.369 -0.456,-0.826 1.476,-0.751 0.342,-0.174 z m -2.284,-2.791 1.428,2.797 -2.805,1.429 -1.428,-2.799 z m 18.36,8.626 v -3.524 -0.383 -0.384 h -0.383 -3.915 -0.383 v 0.384 3.907 0.385 h 0.383 1.54 l 0.003,0.73 0.766,-0.003 -0.005,-0.727 h 1.611 0.383 z m -0.767,-0.383 h -3.146 v -3.141 h 3.146 z M 7.171,-5.986 V -9.51 -9.894 -10.277 H 6.788 2.873 2.489 v 0.383 3.908 0.382 h 0.384 1.416 v 0.743 H 5.053 V -5.604 H 6.788 7.171 Z M 6.404,-6.37 H 3.257 v -3.14 h 3.147 z m 18.331,4.429 v -3.524 -0.386 -0.381 h -0.383 -3.916 -0.383 v 0.381 3.91 0.382 h 0.383 1.396 l 0.039,1.312 0.766,-0.021 -0.04,-1.291 h 1.755 0.383 z m -0.768,-0.385 h -3.146 v -3.139 h 3.146 z m -36.198,9.279 13.899,-2.095 12.674,4.169 1.911,1.085 0.089,0.29 0.093,-0.028 v 1.303 h -1.546 -0.382 v 0.382 3.908 0.384 h 0.382 3.915 0.382 V 15.967 12.059 11.678 H 18.804 17.203 V 9.994 9.772 L 17.008,9.662 16.895,9.597 16.878,9.544 22.688,2.478 23.101,1.978 22.464,1.857 14.417,0.342 14.275,1.094 21.687,2.491 16.608,8.668 14.713,2.521 13.98,2.746 15.818,8.706 14.647,8.32 2.739,1.556 c 0.543,-1.565 1.084,-3.128 1.626,-4.692 l 9.234,4.686 0.344,-0.684 -9.622,-4.886 -0.39,-0.197 -0.145,0.415 -0.243,0.705 -6.601,0.503 0.057,0.767 5.426,-0.415 -3.204,1.798 -2.552,-1.449 -0.067,-0.029 -15.008,-5.049 -0.809,-0.272 0.335,0.785 5.22,12.21 0.704,-0.3 -4.883,-11.425 14.161,4.764 2.119,1.203 -11.244,6.319 -0.197,0.11 v 0.225 1.879 h -1.526 -0.385 v 0.385 3.906 0.384 h 0.385 3.915 0.383 V 12.818 9.295 8.912 8.527 h -0.383 -1.62 z m 30.653,5.489 v 3.141 h -3.15 v -3.139 h 1.314 0.234 v -0.002 z" /></g><g
           transform="translate(93.1455,86.6689)"
           id="g46"><path
             id="path48"
             style="fill:#df3f54;fill-opacity:1;fill-rule:evenodd;stroke:none"
             d="M 0,0 C 1.008,0 1.827,0.813 1.827,1.82 1.827,2.826 1.008,3.646 0,3.646 -1.007,3.646 -1.826,2.826 -1.826,1.82 -1.826,0.813 -1.007,0 0,0" /></g><g
           transform="translate(72.7563,75.6621)"
           id="g50"><path
             id="path52"
             style="fill:#df3f54;fill-opacity:1;fill-rule:evenodd;stroke:none"
             d="M 0,0 C 1.062,0 1.923,0.86 1.923,1.918 1.923,2.978 1.062,3.837 0,3.837 -1.062,3.837 -1.923,2.978 -1.923,1.918 -1.923,0.86 -1.062,0 0,0" /></g><g
           transform="translate(78.3887,81.8359)"
           id="g54"><path
             id="path56"
             style="fill:#df3f54;fill-opacity:1;fill-rule:evenodd;stroke:none"
             d="M 0,0 C 1.007,0 1.825,0.814 1.825,1.82 1.825,2.828 1.007,3.643 0,3.643 -1.008,3.643 -1.826,2.828 -1.826,1.82 -1.826,0.814 -1.008,0 0,0" /></g><g
           transform="translate(58.1611,70.7646)"
           id="g58"><path
             id="path60"
             style="fill:#e5889d;fill-opacity:1;fill-rule:evenodd;stroke:none"
             d="M 0,0 C 1.01,0 1.826,0.816 1.826,1.821 1.826,2.829 1.01,3.643 0,3.643 -1.007,3.643 -1.825,2.829 -1.825,1.821 -1.825,0.816 -1.007,0 0,0" /></g><g
           transform="translate(90.7856,79.0137)"
           id="g62"><path
             id="path64"
             style="fill:#e6879c;fill-opacity:1;fill-rule:evenodd;stroke:none"
             d="M 0,0 C 1.007,0 1.826,0.815 1.826,1.82 1.826,2.828 1.007,3.644 0,3.644 -1.009,3.644 -1.826,2.828 -1.826,1.82 -1.826,0.815 -1.009,0 0,0" /></g><g
           transform="translate(63.8052,83.9512)"
           id="g66"><path
             id="path68"
             style="fill:#f0e525;fill-opacity:1;fill-rule:evenodd;stroke:none"
             d="M 0,0 C 1.007,0 1.825,0.813 1.825,1.822 1.825,2.826 1.007,3.646 0,3.646 -1.008,3.646 -1.826,2.826 -1.826,1.822 -1.826,0.813 -1.008,0 0,0" /></g><g
           transform="translate(98.5181,79.1777)"
           id="g70"><path
             id="path72"
             style="fill:#f0e525;fill-opacity:1;fill-rule:evenodd;stroke:none"
             d="M 0,0 C 1.006,0 1.825,0.815 1.825,1.821 1.825,2.828 1.006,3.646 0,3.646 -1.008,3.646 -1.826,2.828 -1.826,1.821 -1.826,0.815 -1.008,0 0,0" /></g><g
           transform="translate(81.2275,74.6191)"
           id="g74"><path
             id="path76"
             style="fill:#f0e525;fill-opacity:1;fill-rule:evenodd;stroke:none"
             d="M 0,0 C 1.007,0 1.826,0.815 1.826,1.823 1.826,2.829 1.007,3.645 0,3.645 -1.008,3.645 -1.826,2.829 -1.826,1.823 -1.826,0.815 -1.008,0 0,0" /></g><g
           transform="translate(41.2832,34.21)"
           id="g78"><path
             id="path80"
             style="fill:#ffffff;fill-opacity:1;fill-rule:evenodd;stroke:none"
             d="M 0,0 C 0.989,0 1.78,0.753 1.78,1.842 1.78,2.93 0.989,3.86 0,3.86 -0.989,3.86 -1.652,2.93 -1.652,1.842 -1.652,0.753 -0.989,0 0,0" /></g><g
           transform="translate(51.9692,28.8848)"
           id="g82"><path
             id="path84"
             style="fill:#ffffff;fill-opacity:1;fill-rule:evenodd;stroke:none"
             d="M 0,0 C 0.978,-0.149 1.826,0.856 1.826,1.842 1.826,2.829 0.987,3.474 0,3.474 -0.989,3.474 -1.736,2.829 -1.753,1.842 -1.788,-0.566 -0.478,0.07 0,0" /></g><g
           transform="translate(45.9316,27.6113)"
           id="g86"><path
             id="path88"
             style="fill:#ffffff;fill-opacity:1;fill-rule:evenodd;stroke:none"
             d="M 0,0 C 0.989,0 1.846,0.916 1.846,1.903 1.846,2.889 0.989,3.666 0,3.666 -0.989,3.666 -1.655,2.889 -1.655,1.903 -1.655,0.916 -0.989,0 0,0" /></g><g
           transform="translate(69.4082,35.2168)"
           id="g90"><path
             id="path92"
             style="fill:#ffffff;fill-opacity:1;fill-rule:evenodd;stroke:none"
             d="M 0,0 C 0.989,0 1.857,0.909 1.857,1.897 1.857,2.883 0.989,3.528 0,3.528 -0.989,3.528 -2.194,3.133 -1.762,1.844 -1.45,0.907 -0.989,0 0,0" /></g><g
           transform="translate(59.2441,33.0664)"
           id="g94"><path
             id="path96"
             style="fill:#ffffff;fill-opacity:1;fill-rule:evenodd;stroke:none"
             d="M 0,0 C 0.849,0 1.646,0.691 1.646,1.68 1.646,2.667 0.849,3.285 0,3.285 -0.846,3.285 -1.503,2.667 -1.503,1.68 -1.503,0.691 -0.846,0 0,0" /></g><g
           transform="translate(54.457,34.3994)"
           id="g98"><path
             id="path100"
             style="fill:#ffffff;fill-opacity:1;fill-rule:evenodd;stroke:none"
             d="M 0,0 C 0.965,-0.214 1.722,0.833 1.722,1.822 1.722,2.807 0.99,3.633 0,3.633 -0.988,3.633 -1.764,2.807 -1.764,1.822 -1.764,0.833 -1.791,0.397 0,0" /></g><g
           transform="translate(65.083,40.8252)"
           id="g102"><path
             id="path104"
             style="fill:#ffffff;fill-opacity:1;fill-rule:evenodd;stroke:none"
             d="m 0,0 c 0.989,0 1.756,0.256 1.756,1.243 0,0.989 -0.938,1.72 -1.925,1.72 -0.989,0 -1.868,-0.731 -1.868,-1.72 C -2.037,0.256 -0.989,0 0,0" /></g><g
           transform="translate(70.1318,43.4443)"
           id="g106"><path
             id="path108"
             style="fill:#ffffff;fill-opacity:1;fill-rule:evenodd;stroke:none"
             d="M 0,0 C 0.989,0 1.876,0.775 1.876,1.762 1.876,2.749 0.989,3.453 0,3.453 -0.989,3.453 -1.86,2.749 -1.86,1.762 -1.86,0.775 -0.989,0 0,0" /></g><g
           transform="translate(39.769,27.5)"
           id="g110"><path
             id="path112"
             style="fill:#f0e525;fill-opacity:1;fill-rule:evenodd;stroke:none"
             d="M 0,0 C 0.715,0 1.288,0.544 1.288,1.332 1.288,2.117 0.715,2.789 0,2.789 -0.713,2.789 -1.193,2.117 -1.193,1.332 -1.193,0.544 -0.713,0 0,0" /></g><g
           transform="translate(55.166,41.6348)"
           id="g114"><path
             id="path116"
             style="fill:#f0e525;fill-opacity:1;fill-rule:evenodd;stroke:none"
             d="M 0,0 C 0.714,0 1.335,0.662 1.335,1.374 1.335,2.086 0.714,2.65 0,2.65 -0.715,2.65 -1.195,2.086 -1.195,1.374 -1.195,0.662 -0.715,0 0,0" /></g><g
           transform="translate(49.1123,35.4912)"
           id="g118"><path
             id="path120"
             style="fill:#f0e525;fill-opacity:1;fill-rule:evenodd;stroke:none"
             d="m 0,0 c 0.715,0 1.27,0.185 1.27,0.897 0,0.714 -0.677,1.246 -1.392,1.246 -0.714,0 -1.349,-0.532 -1.349,-1.246 C -1.471,0.185 -0.713,0 0,0" /></g><g
           transform="translate(64.8511,32.3486)"
           id="g122"><path
             id="path124"
             style="fill:#f0e525;fill-opacity:1;fill-rule:evenodd;stroke:none"
             d="M 0,0 C 0.714,0 1.355,0.56 1.355,1.272 1.355,1.984 0.714,2.495 0,2.495 -0.715,2.495 -1.344,1.984 -1.344,1.272 -1.344,0.56 -0.715,0 0,0" /></g><g
           transform="translate(90.4077,31.709)"
           id="g126"><path
             id="path128"
             style="fill:#f0e525;fill-opacity:1;fill-rule:evenodd;stroke:none"
             d="M 0,0 C 1.375,0 2.53,1.194 2.53,2.566 2.53,3.938 1.321,5.11 -0.052,5.11 -1.426,5.11 -2.35,3.924 -2.35,2.553 -2.35,1.18 -1.372,0 0,0" /></g><g
           transform="translate(87.439,40.2822)"
           id="g130"><path
             id="path132"
             style="fill:#f0e525;fill-opacity:1;fill-rule:evenodd;stroke:none"
             d="M 0,0 C 1.373,0 2.628,1.218 2.628,2.589 2.628,3.959 1.373,5.037 0,5.037 -1.374,5.037 -2.404,3.959 -2.404,2.589 -2.404,1.218 -1.374,0 0,0" /></g><g
           transform="translate(102.1431,39.6191)"
           id="g134"><path
             id="path136"
             style="fill:#f0e525;fill-opacity:1;fill-rule:evenodd;stroke:none"
             d="M 0,0 C 1.373,0 2.446,1.013 2.446,2.383 2.446,3.754 1.373,4.688 0,4.688 -1.374,4.688 -2.275,3.754 -2.275,2.383 -2.275,1.013 -1.374,0 0,0" /></g><g
           transform="translate(96.9219,34.7813)"
           id="g138"><path
             id="path140"
             style="fill:#f0e525;fill-opacity:1;fill-rule:evenodd;stroke:none"
             d="M 0,0 C 1.374,0 2.483,1.292 2.483,2.663 2.483,4.032 1.374,4.912 0,4.912 -1.374,4.912 -2.719,4.032 -2.719,2.663 -2.719,1.292 -1.374,0 0,0" /></g></g></g></g></svg>