<?xml version="1.0" standalone="no"?>
<!DOCTYPE svg PUBLIC "-//W3C//DTD SVG 20010904//EN"
 "http://www.w3.org/TR/2001/REC-SVG-20010904/DTD/svg10.dtd">
<svg version="1.0" xmlns="http://www.w3.org/2000/svg"
 width="271.000000pt" height="72.000000pt" viewBox="0 0 271.000000 72.000000"
 preserveAspectRatio="xMidYMid meet">

<g transform="translate(0.000000,72.000000) scale(0.100000,-0.100000)"
fill="#040444" stroke="none">
<path d="M30 366 l0 -324 325 -2 325 -1 0 111 c0 60 -2 110 -4 110 -1 0 -54
-24 -117 -54 -63 -29 -151 -65 -196 -80 -95 -30 -275 -76 -295 -76 -7 0 64 38
157 83 183 90 244 126 372 220 l83 61 0 49 0 49 -38 -30 c-68 -55 -201 -132
-279 -163 -91 -37 -302 -109 -318 -109 -5 0 33 23 85 51 52 28 131 75 175 104
75 49 255 206 334 289 l35 36 -50 0 c-45 0 -54 -5 -109 -52 -92 -79 -174 -137
-240 -171 -69 -35 -227 -98 -232 -93 -2 2 42 32 98 66 95 58 247 189 270 232
9 17 -1 18 -186 18 l-195 0 0 -324z"/>
<path d="M1136 618 c-33 -21 -62 -40 -64 -43 -3 -3 17 -5 45 -5 49 0 50 0 66
42 9 23 16 42 14 43 -1 1 -29 -15 -61 -37z"/>
<path d="M2439 593 c-73 -48 -73 -49 -75 -86 0 -17 -14 -71 -29 -119 -33 -101
-28 -118 35 -118 30 0 39 4 43 22 4 12 2 25 -4 29 -15 9 39 160 64 180 15 12
18 23 13 42 -3 14 -1 38 4 53 6 15 9 28 7 30 -2 2 -28 -13 -58 -33z"/>
<path d="M886 600 c-36 -23 -50 -48 -87 -159 -31 -91 -36 -140 -17 -159 7 -7
34 -12 61 -12 69 0 109 27 135 91 l21 50 -46 -3 c-42 -3 -47 -6 -56 -33 -13
-40 -28 -58 -39 -47 -14 14 65 226 85 230 15 3 16 -1 7 -23 -9 -23 -6 -32 17
-60 16 -19 31 -34 35 -34 9 -1 38 88 38 120 0 15 -7 35 -16 43 -22 23 -102 21
-138 -4z"/>
<path d="M1956 611 c-7 -10 -116 -330 -116 -338 0 -10 147 0 174 11 37 15 44
31 102 209 25 77 26 89 13 102 -19 20 -163 33 -173 16z m86 -57 c7 -7 -58
-204 -72 -218 -25 -25 -20 12 16 114 36 105 43 117 56 104z"/>
<path d="M1292 544 c-12 -8 -22 -10 -22 -5 0 6 -18 11 -39 11 l-39 0 -43 -127
c-23 -71 -44 -134 -47 -141 -3 -10 6 -12 38 -10 l42 3 28 77 c30 86 44 108 70
108 13 0 23 15 34 47 9 26 16 48 16 50 0 7 -17 2 -38 -13z"/>
<path d="M1454 545 c-22 -17 -38 -19 -29 -4 5 7 -8 9 -37 7 l-43 -3 -42 -120
c-53 -153 -53 -155 -4 -155 l39 0 26 78 c32 93 35 98 67 110 18 7 29 23 38 52
14 49 12 55 -15 35z"/>
<path d="M1748 544 c-32 -17 -58 -61 -58 -98 0 -16 12 -34 36 -53 29 -23 35
-34 30 -51 -4 -12 -14 -22 -22 -22 -17 0 -17 5 -4 31 10 17 7 19 -29 19 -41 0
-51 -11 -51 -55 0 -29 26 -45 74 -45 53 0 84 19 107 66 25 53 19 76 -26 103
-37 21 -43 39 -23 59 19 19 29 14 22 -13 -6 -23 -4 -25 29 -25 37 0 47 12 47
55 0 44 -76 60 -132 29z"/>
<path d="M2203 545 c-32 -13 -56 -42 -67 -80 -5 -19 -2 -20 33 -17 32 3 42 9
51 33 11 26 30 40 30 22 -1 -36 -17 -53 -67 -74 -30 -12 -61 -32 -69 -44 -24
-37 -35 -87 -23 -102 14 -16 61 -17 77 -1 9 9 12 9 12 -1 0 -8 13 -11 42 -9
l41 3 32 95 c48 143 48 147 25 170 -23 23 -70 26 -117 5z m17 -149 c0 -15 -32
-76 -40 -76 -14 0 -12 16 5 50 13 25 35 41 35 26z"/>
<path d="M2543 540 c-29 -17 -63 -65 -63 -87 0 -5 18 -7 39 -5 33 3 41 9 50
33 10 28 31 40 31 18 0 -26 -25 -52 -73 -73 -60 -26 -70 -37 -87 -89 -9 -30
-9 -41 0 -52 15 -18 61 -20 78 -3 9 9 12 9 12 0 0 -7 15 -12 39 -12 l39 0 41
120 c22 66 41 124 41 130 0 17 -45 40 -80 40 -19 0 -49 -9 -67 -20z m13 -177
c-16 -46 -42 -60 -32 -17 4 16 12 35 18 41 20 25 27 13 14 -24z"/>
<path d="M1032 424 c-24 -69 -46 -132 -49 -140 -4 -11 5 -14 40 -14 l45 0 43
128 c23 70 44 133 47 140 3 8 -9 12 -39 12 l-44 0 -43 -126z"/>
<path d="M1491 528 c-37 -99 -73 -228 -68 -242 8 -19 67 -22 85 -4 9 9 12 9
12 -1 0 -8 13 -11 41 -9 l42 3 47 138 46 137 -42 0 -42 0 -37 -110 c-33 -100
-49 -130 -61 -118 -2 3 12 51 31 108 19 57 35 108 35 112 0 4 -18 8 -40 8 -33
0 -42 -4 -49 -22z"/>
</g>
</svg>
