<?xml version="1.0" encoding="UTF-8" standalone="no"?>
<svg
   xmlns:dc="http://purl.org/dc/elements/1.1/"
   xmlns:cc="http://creativecommons.org/ns#"
   xmlns:rdf="http://www.w3.org/1999/02/22-rdf-syntax-ns#"
   xmlns:svg="http://www.w3.org/2000/svg"
   xmlns="http://www.w3.org/2000/svg"
   viewBox="0 0 1122.52 793.92798"
   height="793.92798"
   width="1122.52"
   xml:space="preserve"
   id="svg2"
   version="1.1"><metadata
     id="metadata8"><rdf:RDF><cc:Work
         rdf:about=""><dc:format>image/svg+xml</dc:format><dc:type
           rdf:resource="http://purl.org/dc/dcmitype/StillImage" /></cc:Work></rdf:RDF></metadata><defs
     id="defs6"><clipPath
       id="clipPath18"
       clipPathUnits="userSpaceOnUse"><path
         id="path16"
         d="M 0,595.446 H 841.89 V 0 H 0 Z" /></clipPath></defs><g
     transform="matrix(1.3333333,0,0,-1.3333333,0,793.928)"
     id="g10"><g
       id="g12"><g
         clip-path="url(#clipPath18)"
         id="g14"><g
           transform="translate(359.4453,178.7803)"
           id="g20"><path
             id="path22"
             style="fill:#ca1e25;fill-opacity:1;fill-rule:nonzero;stroke:none"
             d="m 0,0 -0.09,-21.54 1.574,-0.271 c 4.944,-0.922 9.934,-1.564 14.95,-1.921 4.392,-0.408 8.808,-0.494 13.213,-0.258 4.209,0.303 8.371,1.089 12.401,2.339 4.729,1.338 9.116,3.677 12.862,6.858 3.375,2.88 5.953,6.578 7.492,10.739 2.683,6.967 2.629,14.693 -0.149,21.622 -1.464,3.595 -3.767,6.786 -6.72,9.306 -2.853,2.572 -6.207,4.525 -9.852,5.738 L 29.438,38.64 c -1.942,0.824 -3.52,2.326 -4.438,4.225 -0.715,1.581 -0.648,3.406 0.182,4.929 0.29,0.535 0.655,1.026 1.083,1.459 0.498,0.504 1.055,0.945 1.66,1.315 0.241,0.149 0.487,0.287 0.737,0.416 1.817,0.899 3.776,1.469 5.791,1.686 3.439,0.496 6.934,0.46 10.361,-0.109 4.049,-0.439 8.064,-1.157 12.012,-2.15 l 0.84,-0.186 v 19.872 l -1.553,0.333 c -4.025,0.964 -8.104,1.69 -12.217,2.175 -5.33,0.711 -10.728,0.735 -16.064,0.069 C 21.072,72.055 14.643,69.47 9.337,65.236 5.74,62.413 3.004,58.641 1.437,54.346 -0.922,47.804 -0.93,40.645 1.418,34.098 c 1.214,-3.253 3.156,-6.186 5.681,-8.571 2.188,-2.11 4.663,-3.903 7.35,-5.327 3.539,-1.901 7.291,-3.375 11.178,-4.388 1.283,-0.384 2.559,-0.791 3.828,-1.217 l 1.924,-0.706 c 0.184,-0.074 0.367,-0.148 0.551,-0.224 1.896,-0.679 3.631,-1.748 5.088,-3.14 C 38.029,9.578 38.81,8.41 39.296,7.112 39.597,5.926 39.601,4.684 39.31,3.495 38.701,1.579 37.365,-0.022 35.591,-0.964 33.656,-1.97 31.559,-2.626 29.396,-2.9 26.221,-3.404 23,-3.567 19.791,-3.385 15.586,-3.068 11.402,-2.51 7.261,-1.712 5.095,-1.269 2.94,-0.765 0.803,-0.201 L 0,0" /></g><g
           transform="translate(271.1309,158.0225)"
           id="g24"><path
             id="path26"
             style="fill:#ca1e25;fill-opacity:1;fill-rule:nonzero;stroke:none"
             d="m 0,0 v 25.01 l -0.49,-0.214 c -5.638,-2.73 -11.771,-4.287 -18.028,-4.576 -6.501,-0.509 -12.961,1.395 -18.146,5.348 -3.704,2.859 -6.457,6.77 -7.9,11.22 -1.593,4.85 -1.778,10.052 -0.532,15.002 1.157,5.063 3.992,9.584 8.045,12.83 3.594,3.007 7.986,4.901 12.638,5.452 8.227,0.911 16.538,-0.649 23.874,-4.481 L 0,65.313 v 25.153 l -1.143,0.305 C -8.486,93.129 -16.197,94.139 -23.901,93.75 -30.919,93.571 -37.83,91.991 -44.228,89.103 -50.686,86.144 -56.379,81.744 -60.869,76.241 -74.907,58.48 -75.281,33.51 -61.782,15.337 -55.139,6.838 -45.811,0.841 -35.321,-1.678 -24.264,-4.365 -12.68,-3.959 -1.838,-0.505 L 0,0" /></g><path
           id="path28"
           style="fill:#ca1e25;fill-opacity:1;fill-rule:nonzero;stroke:none"
           d="M 327.38,250.176 H 303.729 V 156.369 H 327.38 Z" /><g
           transform="translate(677.4473,167.2646)"
           id="g30"><path
             id="path32"
             style="fill:#ca1e25;fill-opacity:1;fill-rule:nonzero;stroke:none"
             d="M 0,0 V 1.418 H -10.01 V 0 h 4.163 v -10.896 h 1.684 l 0,10.896 z" /></g><g
           transform="translate(678.4209,156.3691)"
           id="g34"><path
             id="path36"
             style="fill:#ca1e25;fill-opacity:1;fill-rule:nonzero;stroke:none"
             d="M 0,0 H 1.595 V 9.833 H 1.808 L 5.404,0 h 1.605 l 3.887,10.308 V 0 h 1.683 V 12.313 H 9.98 L 6.334,2.172 2.638,12.313 H 0 Z" /></g><g
           transform="translate(151,325.5625)"
           id="g38"><path
             id="path40"
             style="fill:#1c3439;fill-opacity:1;fill-rule:nonzero;stroke:none"
             d="m 0,0 c 0.221,-2.953 1.548,-5.711 3.717,-7.726 2.17,-2.013 5.019,-3.132 7.98,-3.132 2.959,0 5.81,1.119 7.979,3.132 2.17,2.015 3.498,4.773 3.717,7.726 v 25.998 c -0.119,3.023 -1.403,5.881 -3.584,7.978 -2.18,2.095 -5.087,3.266 -8.112,3.266 -3.025,0 -5.932,-1.171 -8.113,-3.266 C 1.403,31.879 0.119,29.021 0,25.998 V 0" /></g><g
           transform="translate(215.752,325.5625)"
           id="g42"><path
             id="path44"
             style="fill:#1c3439;fill-opacity:1;fill-rule:nonzero;stroke:none"
             d="m 0,0 c 0.221,-2.953 1.549,-5.711 3.717,-7.726 2.17,-2.013 5.019,-3.132 7.98,-3.132 2.959,0 5.81,1.119 7.979,3.132 2.17,2.015 3.498,4.773 3.718,7.726 v 58.283 c -0.12,3.022 -1.404,5.881 -3.584,7.978 -2.181,2.095 -5.088,3.266 -8.113,3.266 -3.025,0 -5.932,-1.171 -8.113,-3.266 C 1.404,64.164 0.119,61.305 0,58.283 V 0" /></g><g
           transform="translate(280.1592,302.0879)"
           id="g46"><path
             id="path48"
             style="fill:#1c3439;fill-opacity:1;fill-rule:nonzero;stroke:none"
             d="m 0,0 c 0.22,-2.951 1.547,-5.711 3.717,-7.724 2.169,-2.014 5.018,-3.132 7.979,-3.132 2.959,0 5.81,1.118 7.98,3.132 2.169,2.013 3.497,4.773 3.717,7.724 v 126.072 c -0.119,3.024 -1.404,5.882 -3.584,7.979 -2.181,2.095 -5.088,3.267 -8.113,3.267 -3.025,0 -5.932,-1.172 -8.112,-3.267 C 1.403,131.954 0.118,129.096 0,126.072 V 0" /></g><g
           transform="translate(344.9023,325.5625)"
           id="g50"><path
             id="path52"
             style="fill:#1c3439;fill-opacity:1;fill-rule:nonzero;stroke:none"
             d="m 0,0 c 0.22,-2.953 1.547,-5.711 3.717,-7.726 2.169,-2.013 5.019,-3.132 7.978,-3.132 2.961,0 5.811,1.119 7.981,3.132 2.169,2.015 3.497,4.773 3.717,7.726 v 58.283 c -0.12,3.022 -1.405,5.881 -3.584,7.978 -2.182,2.095 -5.088,3.266 -8.114,3.266 -3.024,0 -5.931,-1.171 -8.111,-3.266 C 1.402,64.164 0.119,61.305 0,58.283 V 0" /></g><g
           transform="translate(409.3574,325.5625)"
           id="g54"><path
             id="path56"
             style="fill:#1c3439;fill-opacity:1;fill-rule:nonzero;stroke:none"
             d="m 0,0 c 0.221,-2.953 1.549,-5.711 3.718,-7.726 2.17,-2.013 5.019,-3.132 7.979,-3.132 2.96,0 5.811,1.119 7.98,3.132 2.17,2.015 3.497,4.773 3.717,7.726 v 25.998 c -0.12,3.023 -1.404,5.881 -3.584,7.978 -2.18,2.095 -5.087,3.266 -8.113,3.266 -3.025,0 -5.931,-1.171 -8.113,-3.266 C 1.404,31.879 0.119,29.021 0,25.998 V 0" /></g><g
           transform="translate(474.0508,325.5625)"
           id="g58"><path
             id="path60"
             style="fill:#1c3439;fill-opacity:1;fill-rule:nonzero;stroke:none"
             d="m 0,0 c 0.22,-2.953 1.548,-5.711 3.717,-7.726 2.169,-2.013 5.02,-3.132 7.98,-3.132 2.959,0 5.81,1.119 7.979,3.132 2.17,2.015 3.497,4.773 3.718,7.726 v 58.283 c -0.12,3.022 -1.404,5.881 -3.584,7.978 -2.181,2.095 -5.088,3.266 -8.113,3.266 -3.025,0 -5.932,-1.171 -8.113,-3.266 C 1.403,64.164 0.119,61.305 0,58.283 V 0" /></g><g
           transform="translate(538.4805,302.0879)"
           id="g62"><path
             id="path64"
             style="fill:#1c3439;fill-opacity:1;fill-rule:nonzero;stroke:none"
             d="m 0,0 c 0.22,-2.951 1.547,-5.711 3.717,-7.724 2.169,-2.014 5.018,-3.132 7.978,-3.132 2.96,0 5.811,1.118 7.981,3.132 2.169,2.013 3.497,4.773 3.717,7.724 v 126.072 c -0.12,3.024 -1.405,5.882 -3.584,7.979 -2.181,2.095 -5.088,3.267 -8.114,3.267 -3.024,0 -5.931,-1.172 -8.113,-3.267 C 1.402,131.954 0.118,129.096 0,126.072 V 0" /></g><g
           transform="translate(603.1211,325.5625)"
           id="g66"><path
             id="path68"
             style="fill:#1c3439;fill-opacity:1;fill-rule:nonzero;stroke:none"
             d="m 0,0 c 0.22,-2.953 1.547,-5.711 3.717,-7.726 2.169,-2.013 5.019,-3.132 7.979,-3.132 2.96,0 5.81,1.119 7.98,3.132 2.169,2.015 3.497,4.773 3.717,7.726 v 58.283 c -0.12,3.022 -1.404,5.881 -3.584,7.978 -2.181,2.095 -5.088,3.266 -8.113,3.266 -3.025,0 -5.932,-1.171 -8.112,-3.266 C 1.403,64.164 0.119,61.305 0,58.283 V 0" /></g><g
           transform="translate(667.6074,325.5625)"
           id="g70"><path
             id="path72"
             style="fill:#1c3439;fill-opacity:1;fill-rule:nonzero;stroke:none"
             d="m 0,0 c 0.22,-2.953 1.547,-5.711 3.717,-7.726 2.169,-2.013 5.018,-3.132 7.978,-3.132 2.96,0 5.811,1.119 7.981,3.132 2.169,2.015 3.497,4.773 3.717,7.726 v 25.998 c -0.12,3.023 -1.405,5.881 -3.584,7.978 -2.181,2.095 -5.088,3.266 -8.114,3.266 -3.024,0 -5.931,-1.171 -8.111,-3.266 C 1.402,31.879 0.118,29.021 0,25.998 V 0" /></g><g
           transform="translate(518.2676,158.0225)"
           id="g74"><path
             id="path76"
             style="fill:#ca1e25;fill-opacity:1;fill-rule:nonzero;stroke:none"
             d="m 0,0 v 25.01 l -0.49,-0.214 c -5.638,-2.73 -11.771,-4.287 -18.028,-4.576 -6.5,-0.509 -12.96,1.395 -18.144,5.347 -3.704,2.86 -6.459,6.771 -7.901,11.221 -1.593,4.85 -1.778,10.052 -0.533,15.002 1.157,5.063 3.992,9.584 8.046,12.83 3.593,3.007 7.986,4.901 12.638,5.452 8.227,0.911 16.538,-0.649 23.876,-4.481 L 0,65.313 v 25.153 l -1.142,0.305 c -7.344,2.358 -15.054,3.368 -22.758,2.979 -7.019,-0.179 -13.93,-1.759 -20.327,-4.646 -6.458,-2.96 -12.15,-7.361 -16.641,-12.863 C -74.905,58.48 -75.279,33.51 -61.78,15.337 c 6.643,-8.499 15.97,-14.496 26.461,-17.015 11.056,-2.687 22.64,-2.281 33.482,1.173 L 0,0" /></g><g
           transform="translate(577.5264,222.4746)"
           id="g78"><path
             id="path80"
             style="fill:#ca1e25;fill-opacity:1;fill-rule:nonzero;stroke:none"
             d="m 0,0 c 5.111,4.082 11.637,5.966 18.138,5.238 6.501,-0.728 12.446,-4.009 16.529,-9.122 4.082,-5.111 5.966,-11.636 5.237,-18.137 -0.728,-6.5 -4.009,-12.447 -9.122,-16.529 -5.111,-4.082 -11.636,-5.966 -18.136,-5.237 -6.501,0.727 -12.448,4.009 -16.53,9.121 -4.082,5.111 -5.966,11.636 -5.237,18.137 C -8.394,-10.028 -5.112,-4.082 0,0 m -34.337,-19.242 c 0.23,-14.828 7.114,-28.767 18.75,-37.961 11.636,-9.194 26.788,-12.67 41.268,-9.465 19.661,3.702 34.982,19.178 38.489,38.874 3.507,19.695 -5.532,39.508 -22.707,49.769 -15.166,9.384 -34.198,9.919 -49.866,1.398 -15.669,-8.519 -25.568,-24.784 -25.934,-42.615" /></g></g></g></g></svg>