<?xml version="1.0" encoding="UTF-8" standalone="no"?>
<svg
   xmlns:dc="http://purl.org/dc/elements/1.1/"
   xmlns:cc="http://creativecommons.org/ns#"
   xmlns:rdf="http://www.w3.org/1999/02/22-rdf-syntax-ns#"
   xmlns:svg="http://www.w3.org/2000/svg"
   xmlns="http://www.w3.org/2000/svg"
   viewBox="0 0 343.11066 327.11066"
   height="327.11066"
   width="343.11066"
   xml:space="preserve"
   id="svg2"
   version="1.1"><metadata
     id="metadata8"><rdf:RDF><cc:Work
         rdf:about=""><dc:format>image/svg+xml</dc:format><dc:type
           rdf:resource="http://purl.org/dc/dcmitype/StillImage" /></cc:Work></rdf:RDF></metadata><defs
     id="defs6"><clipPath
       id="clipPath18"
       clipPathUnits="userSpaceOnUse"><path
         id="path16"
         d="M 0,245.333 H 257.333 V 0 H 0 Z" /></clipPath></defs><g
     transform="matrix(1.3333333,0,0,-1.3333333,0,327.11067)"
     id="g10"><g
       id="g12"><g
         clip-path="url(#clipPath18)"
         id="g14"><g
           transform="translate(126.9028,227.208)"
           id="g20"><path
             id="path22"
             style="fill:#c00f35;fill-opacity:1;fill-rule:evenodd;stroke:none"
             d="m 0,0 c 3.073,-0.337 6.159,-0.589 9.218,-1.025 27.069,-3.864 49.475,-16.228 67.257,-36.988 0.209,-0.244 0.392,-0.509 0.887,-1.157 -2.594,0.371 -4.817,0.557 -6.98,1.02 -10.294,2.204 -20.711,3.548 -31.184,4.469 -6.171,0.543 -12.363,0.826 -18.539,1.322 -1.281,0.103 -1.449,-0.633 -1.733,-1.485 -4.543,-13.63 -9.101,-27.255 -13.639,-40.887 -4.295,-12.902 -8.572,-25.81 -12.854,-38.716 -0.186,-0.563 -0.341,-1.136 -0.568,-1.897 3.123,-0.335 6.077,-0.61 9.021,-0.974 13.64,-1.686 27.162,-3.917 39.941,-9.288 6.647,-2.795 12.814,-6.365 17.303,-12.183 8.349,-10.82 5.689,-25.259 -5.963,-32.945 -10.31,-6.798 -25.286,-6.226 -34.458,1.557 -2.236,1.898 -4.084,4.352 -5.762,6.791 -3.979,5.787 -7.745,11.721 -11.609,17.588 -1.091,1.656 -1.991,1.868 -3.519,0.579 -1.73,-1.461 -3.314,-3.096 -4.955,-4.662 -1.802,-1.719 -3.597,-3.444 -5.392,-5.17 -1.561,-1.501 -1.807,-2.616 -0.953,-4.617 2.585,-6.054 5.238,-12.079 7.749,-18.164 0.631,-1.529 1.712,-2.3 3.133,-2.649 4.186,-1.027 8.362,-2.144 12.602,-2.881 8.088,-1.402 16.267,-2.091 24.472,-1.648 15.491,0.834 29.351,6.025 41.296,16.046 10.299,8.638 15.958,19.792 17.497,33.033 1.419,12.208 -0.533,23.738 -7.844,33.948 -4.729,6.602 -10.905,11.546 -18.072,15.305 -10.081,5.286 -20.936,7.988 -32.115,9.527 -4.653,0.641 -9.351,0.956 -14.027,1.429 -0.313,0.032 -0.616,0.15 -1.089,0.27 0.441,1.496 0.839,2.915 1.276,4.322 1.054,3.377 2.168,6.735 3.165,10.129 0.328,1.11 0.833,1.444 1.994,1.369 11.707,-0.765 23.423,-1.387 35.123,-2.227 5.569,-0.4 11.113,-1.157 16.662,-1.807 2.275,-0.267 2.28,-0.31 2.686,1.887 0.786,4.242 1.587,8.481 2.393,12.719 0.08,0.426 0.233,0.838 0.582,1.271 18.48,-28.688 23.431,-59.417 13.022,-92.09 -12.541,-39.369 -46.492,-67.162 -86.177,-72.248 -36.581,-4.69 -67.701,6.965 -93.099,33.86 21.035,-3.362 42.175,-5.088 63.51,-5.765 0,2.371 0.06,4.567 -0.066,6.752 -0.018,0.315 -0.9,0.757 -1.429,0.837 -4.749,0.72 -9.509,1.36 -14.261,2.057 -0.649,0.095 -1.262,0.412 -1.905,0.569 -3.656,0.893 -5.256,3.398 -5.46,6.974 -0.294,5.137 -0.699,10.274 -0.807,15.416 -0.34,15.993 -0.584,31.989 -0.812,47.983 -0.049,3.373 0.176,6.75 0.171,10.124 -0.002,1.206 0.321,1.628 1.588,1.631 6.865,0.009 13.731,0.066 20.594,0.215 1.332,0.029 2.733,0.341 3.962,0.857 3.11,1.304 6.152,2.773 9.187,4.246 0.445,0.216 0.988,0.802 1.004,1.235 0.096,2.481 0.047,4.968 0.047,7.815 -11.928,-0.177 -23.845,-0.353 -35.93,-0.533 0,1.307 -0.049,2.508 0.008,3.705 0.401,8.344 0.566,16.71 1.32,25.023 0.633,6.979 5.221,11.582 13.932,9.766 5.751,-1.2 11.026,-3.569 16.261,-6.09 2.094,-1.008 4.142,-2.115 6.248,-3.094 3.405,-1.583 5.151,-0.843 6.679,1.346 1.324,1.895 3.004,3.541 4.501,5.318 1.454,1.727 1.294,2.944 -0.486,4.311 -2.677,2.054 -5.469,3.98 -7.98,6.22 -3.777,3.372 -8.156,4.723 -13.101,4.646 -18.541,-0.288 -35.612,-5.197 -50.54,-16.463 -6.931,-5.231 -12.491,-11.735 -14.835,-20.272 -1.173,-4.274 -1.324,-8.831 -1.914,-13.263 -0.138,-1.036 -0.185,-2.085 -0.286,-3.275 -2.822,-0.253 -5.562,-0.503 -8.303,-0.746 -1.434,-0.127 -2.871,-0.37 -4.3,-0.33 -1.617,0.047 -2.256,-0.516 -2.29,-2.174 -0.071,-3.413 -0.318,-6.822 -0.503,-10.443 4.997,0.239 9.763,0.467 14.563,0.697 0,-3.231 -0.032,-6.203 0.006,-9.175 0.124,-9.85 0.025,-19.711 0.481,-29.547 0.487,-10.496 1.51,-20.968 2.29,-31.451 0.049,-0.661 0.037,-1.329 0.024,-1.993 -0.049,-2.481 -0.818,-3.45 -3.245,-4.11 -0.266,-0.072 -0.537,-0.126 -0.804,-0.199 -2.862,-0.788 -4.706,-0.029 -6.481,2.686 -6.551,10.019 -11.604,20.674 -14.668,32.23 -2.242,8.455 -3.315,17.05 -3.416,25.855 -0.136,11.748 1.132,23.243 5.045,34.287 13.749,38.802 40.817,62.659 81.075,71.383 4.359,0.944 8.878,1.155 13.321,1.715 0.544,0.069 1.081,0.192 1.621,0.291 z" /></g><g
           transform="translate(244.9331,59.5435)"
           id="g24"><path
             id="path26"
             style="fill:#000000;fill-opacity:1;fill-rule:evenodd;stroke:none"
             d="m 0,0 c 0.015,3.907 -3.057,7.045 -6.863,7.011 -3.754,-0.035 -6.831,-3.157 -6.827,-6.926 0.004,-3.796 3.064,-6.893 6.823,-6.905 C -3.052,-6.834 -0.014,-3.817 0,0 m -6.772,8.078 c 4.546,-0.019 8.029,-3.564 7.998,-8.141 -0.03,-4.381 -3.63,-7.865 -8.123,-7.859 -4.467,0.006 -7.896,3.512 -7.882,8.062 0.013,4.511 3.488,7.957 8.007,7.938" /></g><g
           transform="translate(240.6675,59.5981)"
           id="g28"><path
             id="path30"
             style="fill:#ffffff;fill-opacity:1;fill-rule:evenodd;stroke:none"
             d="M 0,0 C 0.875,0.515 1.393,1.583 0.852,2.978 0.338,4.304 -0.867,4.404 -2.047,4.441 -3.24,4.479 -4.435,4.45 -5.762,4.45 c 0,-2.783 -0.028,-5.317 0.036,-7.847 0.009,-0.322 0.505,-0.631 0.776,-0.947 0.245,0.347 0.651,0.671 0.702,1.044 0.109,0.786 0.034,1.598 0.034,2.376 3.025,0.188 3.179,0.04 3.782,-2.628 0.081,-0.358 0.63,-0.612 0.961,-0.915 0.205,0.146 0.41,0.29 0.616,0.436 C 0.78,-2.751 0.417,-1.47 0,0 M 4.266,-0.055 C 4.252,-3.872 1.214,-6.889 -2.602,-6.875 -6.36,-6.862 -9.42,-3.766 -9.425,0.03 -9.429,3.799 -6.352,6.921 -2.598,6.956 1.209,6.99 4.28,3.853 4.266,-0.055" /></g><g
           transform="translate(236.5591,63.4126)"
           id="g32"><path
             id="path34"
             style="fill:#000000;fill-opacity:1;fill-rule:evenodd;stroke:none"
             d="m 0,0 v -3.977 c 1.304,0.468 2.403,0.773 3.393,1.289 0.214,0.112 0.214,1.337 0.003,1.446 C 2.435,-0.748 1.363,-0.47 0,0 m 4.108,-3.814 c 0.417,-1.47 0.781,-2.751 1.145,-4.032 -0.205,-0.145 -0.41,-0.29 -0.615,-0.435 -0.331,0.302 -0.88,0.556 -0.961,0.915 -0.604,2.668 -0.758,2.815 -3.782,2.628 0,-0.779 0.075,-1.59 -0.035,-2.376 -0.05,-0.373 -0.457,-0.698 -0.702,-1.044 -0.27,0.315 -0.766,0.625 -0.775,0.946 -0.065,2.53 -0.036,5.065 -0.036,7.848 1.327,0 2.521,0.029 3.715,-0.009 C 3.241,0.59 4.446,0.489 4.96,-0.837 5.501,-2.231 4.983,-3.3 4.108,-3.814" /></g><g
           transform="translate(236.5591,63.4126)"
           id="g36"><path
             id="path38"
             style="fill:#ffffff;fill-opacity:1;fill-rule:evenodd;stroke:none"
             d="M 0,0 C 1.363,-0.47 2.435,-0.748 3.396,-1.242 3.607,-1.351 3.607,-2.576 3.393,-2.688 2.403,-3.204 1.304,-3.509 0,-3.977 Z" /></g></g></g></g></svg>