<?xml version="1.0" encoding="UTF-8" standalone="no"?>
<svg
   xmlns:dc="http://purl.org/dc/elements/1.1/"
   xmlns:cc="http://creativecommons.org/ns#"
   xmlns:rdf="http://www.w3.org/1999/02/22-rdf-syntax-ns#"
   xmlns:svg="http://www.w3.org/2000/svg"
   xmlns="http://www.w3.org/2000/svg"
   viewBox="0 0 400 150"
   height="150"
   width="400"
   xml:space="preserve"
   id="svg2"
   version="1.1"><metadata
     id="metadata8"><rdf:RDF><cc:Work
         rdf:about=""><dc:format>image/svg+xml</dc:format><dc:type
           rdf:resource="http://purl.org/dc/dcmitype/StillImage" /></cc:Work></rdf:RDF></metadata><defs
     id="defs6" /><g
     transform="matrix(1.3333333,0,0,-1.3333333,-452,920)"
     id="g10"><g
       transform="scale(0.16)"
       id="g12"><path
         id="path14"
         style="fill:#ea4335;fill-opacity:1;fill-rule:nonzero;stroke:none"
         d="m 2371.72,4027.02 h 1.06 l -0.64,0.53 40.09,40.09 0.09,0.73 c -33.76,29.8 -80.57,40.07 -123.71,27.13 -43.14,-12.98 -76.54,-47.27 -88.36,-90.72 0.71,0.28 1.42,0.52 2.15,0.7 14.89,9.81 32.6,15.43 51.29,15.56 6.22,0.02 12.38,-0.58 18.38,-1.75 0.31,0.19 0.6,0.27 0.85,0.22 25.81,28.36 69.22,31.64 99.01,7.51 h -0.21" /><path
         id="path16"
         style="fill:#4285f4;fill-opacity:1;fill-rule:nonzero;stroke:none"
         d="m 2452.23,4004.78 c -6.68,24.53 -20.36,46.58 -39.38,63.48 l -40.71,-40.71 c 17.18,-14.04 26.98,-35.18 26.56,-57.39 v -7.21 c 48.29,0 48.29,-72.45 0,-72.45 h -72.46 l -0.11,-0.12 v -57.5 h -0.31 l 0.42,-0.42 h 72.46 c 41.56,-0.32 78.38,26.61 90.74,66.3 12.3,39.65 -2.82,82.74 -37.21,106.02" /><path
         id="path18"
         style="fill:#34a853;fill-opacity:1;fill-rule:nonzero;stroke:none"
         d="m 2253.69,3832.88 h 72.44 v 57.98 h -72.44 c -5.12,0 -10.23,1.1 -14.88,3.26 l -41.9,-41.89 -0.1,-0.43 c 16.38,-12.34 36.36,-19.02 56.88,-18.92" /><path
         id="path20"
         style="fill:#fbbc05;fill-opacity:1;fill-rule:nonzero;stroke:none"
         d="m 2253.69,4021.04 c -40.23,-0.27 -75.9,-26.02 -88.74,-64.13 -12.88,-38.16 -0.04,-80.25 31.86,-104.78 l 42.04,42.02 c -23.12,10.45 -28.64,40.71 -10.71,58.63 17.91,17.91 48.17,12.4 58.62,-10.7 l 42.03,42.01 c -17.87,23.38 -45.7,37.06 -75.1,36.95" /><path
         id="path22"
         style="fill:#5f6368;fill-opacity:1;fill-rule:nonzero;stroke:none"
         d="m 2686.61,3873.38 c -25.24,-0.32 -49.46,9.64 -67.2,27.55 -18.24,17.23 -28.48,41.29 -28.16,66.37 -0.32,25.13 9.92,49.18 28.16,66.36 17.64,18.13 41.91,28.3 67.2,28.09 24.06,0.31 47.28,-9.01 64.4,-25.97 l -18.13,-18.4 c -12.4,11.98 -29.05,18.56 -46.27,18.29 -18.13,0.27 -35.47,-7.15 -47.87,-20.35 -12.82,-12.72 -19.92,-30.21 -19.6,-48.34 -0.17,-17.87 6.88,-35.08 19.6,-47.7 26.24,-26.14 68.48,-26.61 95.25,-1.12 8.01,8.76 12.88,19.88 13.94,31.65 h -61.06 v 26.07 h 86.45 c 0.85,-5.24 1.16,-10.59 1.02,-15.9 1.05,-22.21 -7,-43.93 -22.32,-60.05 -17.02,-17.75 -40.82,-27.39 -65.41,-26.55 z m 200.87,17.28 c -24.1,-23.06 -62.11,-23.06 -86.17,0 -11.71,11.35 -18.08,27.03 -17.65,43.25 -0.43,16.26 5.99,31.96 17.65,43.25 24.06,23.05 62.07,23.05 86.17,0 11.67,-11.29 18.03,-26.99 17.6,-43.25 0.43,-16.22 -5.99,-31.9 -17.7,-43.25 z m -67.15,17.02 c 12.99,-13.9 35.1,-13.9 48.13,0 6.78,7.04 10.45,16.47 10.17,26.23 0.28,9.81 -3.39,19.34 -10.17,26.38 -13.2,13.74 -35.19,13.74 -48.33,0 -6.83,-7.04 -10.5,-16.57 -10.18,-26.38 -0.27,-9.76 3.45,-19.24 10.28,-26.23 z M 3020,3890.66 c -24.11,-23.06 -62.12,-23.06 -86.23,0 -11.68,11.35 -18.04,27.03 -17.6,43.25 -0.44,16.26 5.92,31.96 17.6,43.25 24.11,23.11 62.12,23.11 86.23,0 11.65,-11.29 18.02,-26.99 17.59,-43.25 0.43,-16.22 -5.94,-31.9 -17.59,-43.25 z m -67.21,17.02 c 13.04,-13.9 35.14,-13.9 48.18,0 6.79,7.04 10.44,16.47 10.18,26.23 0.26,9.81 -3.39,19.34 -10.18,26.38 -13.2,13.74 -35.2,13.74 -48.34,0 -6.84,-7.04 -10.49,-16.57 -10.18,-26.38 -0.26,-9.76 3.44,-19.24 10.23,-26.23 z m 154.29,-88.64 c -12.18,-0.41 -24.17,3.4 -33.87,10.76 -8.64,6.53 -15.48,15.16 -19.77,25.08 l 23.22,9.65 c 2.54,-5.94 6.46,-11.13 11.51,-15.16 5.35,-4.35 12.13,-6.63 19.01,-6.42 8.86,-0.53 17.5,2.81 23.7,9.18 6.15,7.37 9.17,16.85 8.48,26.44 v 8.75 h -0.95 c -7.84,-9.33 -19.67,-14.42 -31.8,-13.73 -15.48,-0.05 -30.23,6.37 -40.72,17.71 -11.39,11.24 -17.69,26.65 -17.43,42.61 -0.26,16.12 5.99,31.64 17.43,42.98 10.45,11.34 25.24,17.81 40.72,17.81 6.46,0 12.82,-1.43 18.71,-4.19 5.03,-2.22 9.59,-5.51 13.19,-9.64 h 0.96 v 9.64 h 25.22 v -108.38 c 1.33,-17.34 -4.5,-34.45 -16.16,-47.34 -11.14,-10.6 -26.08,-16.33 -41.45,-15.75 z m 1.86,78.14 c 8.8,-0.16 17.22,3.55 23,10.17 6.26,7.2 9.59,16.54 9.23,26.08 0.36,9.7 -2.92,19.19 -9.23,26.55 -5.78,6.68 -14.2,10.4 -23,10.18 -9.06,0.16 -17.71,-3.5 -23.85,-10.18 -6.73,-7.09 -10.4,-16.59 -10.18,-26.33 -0.22,-9.7 3.5,-19.1 10.18,-26.08 6.09,-6.73 14.79,-10.51 23.85,-10.39 z m 100.65,-20.14 h -26.6 v 177.87 h 26.6 z m 72.82,-3.66 c -16.06,-0.43 -31.58,5.89 -42.82,17.38 -11.4,11.45 -17.59,27.04 -17.23,43.15 -0.58,16.21 5.41,31.91 16.6,43.56 10.59,11.13 25.38,17.33 40.7,17.02 6.99,0.05 13.94,-1.28 20.36,-3.98 5.82,-2.33 11.12,-5.78 15.57,-10.17 3.87,-3.71 7.26,-7.85 10.18,-12.3 2.39,-3.81 4.39,-7.79 6,-11.92 l 2.75,-6.95 -81.41,-33.45 c 5.03,-11.6 16.68,-18.86 29.3,-18.33 12.19,0 23.53,6.35 29.84,16.8 l 20.36,-13.73 c -5.2,-7.42 -11.88,-13.72 -19.55,-18.55 -9.18,-5.78 -19.77,-8.74 -30.65,-8.53 z m -33.97,62.39 54.11,22.46 c -1.64,3.98 -4.61,7.26 -8.42,9.28 -4.24,2.38 -9.07,3.65 -13.94,3.54 -8.28,-0.19 -16.17,-3.64 -21.89,-9.64 -6.95,-6.68 -10.56,-16.05 -9.86,-25.64" /><path
         id="path24"
         style="fill:#5f6368;fill-opacity:1;fill-rule:nonzero;stroke:none"
         d="m 3473.65,3873.38 c -22.85,-0.37 -44.84,8.53 -60.9,24.75 -16.11,16.16 -24.92,38.21 -24.37,61.05 -0.55,22.8 8.26,44.85 24.37,61.06 16.06,16.17 38.05,25.13 60.9,24.71 23.16,0.74 45.36,-9.17 60.37,-26.88 l -14.68,-14.21 c -10.98,13.79 -27.94,21.57 -45.59,20.84 -16.96,0.37 -33.29,-6.16 -45.31,-18.12 -12.46,-12.51 -19.14,-29.74 -18.39,-47.4 -0.75,-17.69 5.93,-34.86 18.39,-47.43 12.02,-11.97 28.35,-18.5 45.31,-18.13 19.72,-0.2 38.44,8.53 50.88,23.8 l 14.64,-14.63 c -7.64,-9.17 -17.29,-16.54 -28.16,-21.46 -11.76,-5.4 -24.52,-8.16 -37.46,-7.95" /><path
         id="path26"
         style="fill:#5f6368;fill-opacity:1;fill-rule:nonzero;stroke:none"
         d="m 3557.6,3877.04 h 21.04 v 164.36 h -21.04 v -164.36" /><path
         id="path28"
         style="fill:#5f6368;fill-opacity:1;fill-rule:nonzero;stroke:none"
         d="m 3613.05,3975.94 c 23,22.83 60.11,22.83 83.05,0 10.92,-11.51 16.75,-26.88 16.27,-42.73 0.48,-15.85 -5.35,-31.2 -16.27,-42.71 -22.94,-22.85 -60.05,-22.85 -83.05,0 -10.87,11.51 -16.75,26.86 -16.27,42.71 -0.48,15.85 5.4,31.22 16.27,42.73 z m 15.68,-72.24 c 14,-14.79 37.59,-14.79 51.57,0 7.49,8 11.4,18.6 10.93,29.51 0.47,10.93 -3.44,21.52 -10.93,29.53 -13.98,14.79 -37.57,14.79 -51.57,0 -7.42,-8.01 -11.34,-18.6 -10.85,-29.53 -0.44,-10.85 3.48,-21.46 10.96,-29.41 l -0.11,-0.1" /><path
         id="path30"
         style="fill:#5f6368;fill-opacity:1;fill-rule:nonzero;stroke:none"
         d="m 3829.14,3877.04 h -20.35 v 15.58 h -0.64 c -3.61,-5.94 -8.76,-10.76 -14.85,-14.05 -6.35,-3.66 -13.56,-5.62 -20.88,-5.62 -12.03,-0.79 -23.8,3.93 -31.96,12.82 -7.69,9.76 -11.55,22 -10.86,34.41 v 69.22 h 21.04 v -65.35 c 0,-20.93 9.27,-31.43 27.78,-31.43 8.37,-0.26 16.32,3.55 21.41,10.17 5.46,6.94 8.32,15.54 8.21,24.33 v 62.28 h 21.1 v -112.36" /><path
         id="path32"
         style="fill:#5f6368;fill-opacity:1;fill-rule:nonzero;stroke:none"
         d="m 3900.63,3873.38 c -14.46,-0.06 -28.19,6.25 -37.62,17.23 -10.54,11.6 -16.22,26.92 -15.8,42.6 -0.42,15.75 5.26,31.02 15.8,42.67 9.43,10.93 23.16,17.22 37.62,17.18 8.01,0.09 15.96,-1.75 23.01,-5.52 6.27,-3.12 11.5,-7.84 15.27,-13.72 h 0.9 l -0.9,15.58 v 52 H 3960 v -164.36 h -20.35 v 15.58 h -0.95 c -3.76,-5.88 -9.01,-10.6 -15.27,-13.74 -7,-3.7 -14.84,-5.61 -22.8,-5.5 z m 3.51,19.24 c 9.59,-0.16 18.81,3.86 25.33,10.97 7.16,8.16 10.81,18.81 10.18,29.62 0.63,10.82 -3.02,21.47 -10.18,29.63 -13.67,15 -37.26,15 -50.88,0 -7.21,-8.11 -10.86,-18.7 -10.18,-29.51 -0.68,-10.82 2.97,-21.42 10.18,-29.53 6.47,-7.26 15.79,-11.34 25.55,-11.18" /></g></g></svg>