<?xml version="1.0" encoding="UTF-8" standalone="no"?>
<svg
   xmlns:dc="http://purl.org/dc/elements/1.1/"
   xmlns:cc="http://creativecommons.org/ns#"
   xmlns:rdf="http://www.w3.org/1999/02/22-rdf-syntax-ns#"
   xmlns:svg="http://www.w3.org/2000/svg"
   xmlns="http://www.w3.org/2000/svg"
   viewBox="0 0 793.70667 1122.52"
   height="1122.52"
   width="793.70667"
   xml:space="preserve"
   id="svg2"
   version="1.1"><metadata
     id="metadata8"><rdf:RDF><cc:Work
         rdf:about=""><dc:format>image/svg+xml</dc:format><dc:type
           rdf:resource="http://purl.org/dc/dcmitype/StillImage" /></cc:Work></rdf:RDF></metadata><defs
     id="defs6"><clipPath
       id="clipPath18"
       clipPathUnits="userSpaceOnUse"><path
         id="path16"
         d="m 182.21,495.393 v -31.177 l 20.067,-0.325 v -87.716 h -20.333 v -31.371 h 77.265 c 37.951,0.97 40.081,35.631 40.081,35.631 v 0 c 2.13,23.625 -19.753,40.086 -19.753,40.086 v 0 c 23.24,21.293 20.335,34.466 20.335,34.466 v 0 c -1.355,40.081 -41.726,40.406 -41.726,40.406 v 0 z m 52.987,-33.629 h 30.014 v -22.462 h -30.014 z m 0,-59.836 h 30.595 v -24.785 h -30.595 z" /></clipPath><clipPath
       id="clipPath138"
       clipPathUnits="userSpaceOnUse"><path
         id="path136"
         d="M 0,841.89 H 595.28 V 0 H 0 Z" /></clipPath></defs><g
     transform="matrix(1.3333333,0,0,-1.3333333,0,1122.52)"
     id="g10"><g
       id="g12"><g
         clip-path="url(#clipPath18)"
         id="g14"><path
           id="path20"
           style="fill:#ffffff;fill-opacity:1;fill-rule:nonzero;stroke:none"
           d="M 496.413,356.21 H 79.498 v 9.032 h 416.915 z" /><path
           id="path22"
           style="fill:#373535;fill-opacity:1;fill-rule:nonzero;stroke:none"
           d="M 496.413,344.966 H 79.498 v 11.669 h 416.915 z" /><path
           id="path24"
           style="fill:#ffffff;fill-opacity:1;fill-rule:nonzero;stroke:none"
           d="M 496.413,374.992 H 79.498 v 9.033 h 416.915 z" /><path
           id="path26"
           style="fill:#373535;fill-opacity:1;fill-rule:nonzero;stroke:none"
           d="M 496.413,363.751 H 79.498 v 11.667 h 416.915 z" /><path
           id="path28"
           style="fill:#ffffff;fill-opacity:1;fill-rule:nonzero;stroke:none"
           d="M 496.413,395.337 H 79.498 v 9.034 h 416.915 z" /><path
           id="path30"
           style="fill:#373535;fill-opacity:1;fill-rule:nonzero;stroke:none"
           d="M 496.413,384.096 H 79.498 v 11.669 h 416.915 z" /><path
           id="path32"
           style="fill:#ffffff;fill-opacity:1;fill-rule:nonzero;stroke:none"
           d="M 496.413,415.687 H 79.498 v 9.034 h 416.915 z" /><path
           id="path34"
           style="fill:#373535;fill-opacity:1;fill-rule:nonzero;stroke:none"
           d="M 496.413,404.444 H 79.498 v 11.668 h 416.915 z" /><path
           id="path36"
           style="fill:#ffffff;fill-opacity:1;fill-rule:nonzero;stroke:none"
           d="M 496.413,436.031 H 79.498 v 9.038 h 416.915 z" /><path
           id="path38"
           style="fill:#373535;fill-opacity:1;fill-rule:nonzero;stroke:none"
           d="M 496.413,424.791 H 79.498 v 11.668 h 416.915 z" /><path
           id="path40"
           style="fill:#ffffff;fill-opacity:1;fill-rule:nonzero;stroke:none"
           d="M 496.413,454.819 H 79.498 v 9.032 h 416.915 z" /><path
           id="path42"
           style="fill:#373535;fill-opacity:1;fill-rule:nonzero;stroke:none"
           d="M 496.413,443.573 H 79.498 v 11.668 h 416.915 z" /><path
           id="path44"
           style="fill:#ffffff;fill-opacity:1;fill-rule:nonzero;stroke:none"
           d="M 496.413,475.159 H 79.498 v 9.038 h 416.915 z" /><path
           id="path46"
           style="fill:#373535;fill-opacity:1;fill-rule:nonzero;stroke:none"
           d="M 496.413,463.917 H 79.498 v 11.673 h 416.915 z" /><path
           id="path48"
           style="fill:#373535;fill-opacity:1;fill-rule:nonzero;stroke:none"
           d="M 496.413,484.265 H 79.498 v 11.673 h 416.915 z" /></g></g><path
       id="path50"
       style="fill:#ffffff;fill-opacity:1;fill-rule:nonzero;stroke:none"
       d="m 421.475,356.21 h 51.896 v 9.032 h -51.896 z m -37.701,9.032 3.233,-9.032 h 7.711 l 3.199,9.032 z m -76.353,-9.032 h 52.475 v 9.032 h -52.475 z" /><path
       id="path52"
       style="fill:#373535;fill-opacity:1;fill-rule:nonzero;stroke:none"
       d="m 421.475,345.195 h 51.896 v 11.44 h -51.896 z m -34.62,11.44 4.028,-11.251 3.985,11.251 z m -79.434,-11.44 h 52.475 v 11.44 h -52.475 z" /><g
       transform="translate(421.4754,384.0255)"
       id="g54"><path
         id="path56"
         style="fill:#ffffff;fill-opacity:1;fill-rule:nonzero;stroke:none"
         d="m 0,0 v -9.033 h 51.896 v 1.182 H 31.952 V 0 Z m -44.426,0 3.234,-9.033 h 21.087 l 3.2,9.033 z m -48.909,0 v -7.461 h -20.719 v -1.572 h 52.475 V 0 Z" /></g><path
       id="path58"
       style="fill:#373535;fill-opacity:1;fill-rule:nonzero;stroke:none"
       d="m 421.475,363.751 h 51.896 v 11.667 h -51.896 z m -41.344,11.667 4.176,-11.667 h 13.082 l 4.133,11.667 z m -72.71,-11.667 h 52.475 v 11.667 h -52.475 z" /><path
       id="path60"
       style="fill:#ffffff;fill-opacity:1;fill-rule:nonzero;stroke:none"
       d="m 421.475,395.338 h 31.952 v 9.034 h -31.952 z m -51.709,9.034 3.234,-9.034 h 35.578 l 3.2,9.034 z m -41.625,-9.034 h 31.756 v 9.034 h -31.756 z" /><path
       id="path62"
       style="fill:#373535;fill-opacity:1;fill-rule:nonzero;stroke:none"
       d="m 421.475,384.096 h 31.952 v 11.669 h -31.952 z m -48.628,11.669 4.177,-11.669 h 27.572 l 4.133,11.669 z m -44.706,-11.669 h 31.756 v 11.669 h -31.756 z" /><path
       id="path64"
       style="fill:#ffffff;fill-opacity:1;fill-rule:nonzero;stroke:none"
       d="m 421.475,415.687 h 31.952 v 9.034 h -31.952 z m -58.994,9.035 3.234,-9.035 h 50.072 l 3.2,9.035 z m -34.34,-9.035 h 31.756 v 9.034 h -31.756 z" /><path
       id="path66"
       style="fill:#373535;fill-opacity:1;fill-rule:nonzero;stroke:none"
       d="m 421.475,404.444 h 31.952 v 11.668 h -31.952 z m -55.912,11.667 4.177,-11.667 h 42.064 l 4.133,11.667 z m -37.422,-11.667 h 31.756 v 11.668 h -31.756 z" /><g
       transform="translate(397.1282,445.0689)"
       id="g68"><path
         id="path70"
         style="fill:#ffffff;fill-opacity:1;fill-rule:nonzero;stroke:none"
         d="M 0,0 -3.246,-9.038 H 56.299 V 0 Z m -68.987,0 v -9.038 h 59.64 L -12.703,0 Z" /></g><g
       transform="translate(394.0358,436.4595)"
       id="g72"><path
         id="path74"
         style="fill:#373535;fill-opacity:1;fill-rule:nonzero;stroke:none"
         d="M 0,0 -3.153,-8.779 -6.414,0 h -59.481 v -11.669 h 31.756 v 7.15 l 2.559,-7.15 h 56.556 l 2.464,6.957 v -6.957 h 31.951 l 0,11.669 z" /></g><g
       transform="translate(403.8742,463.8501)"
       id="g76"><path
         id="path78"
         style="fill:#ffffff;fill-opacity:1;fill-rule:nonzero;stroke:none"
         d="M 0,0 -3.244,-9.031 H 49.553 V 0 Z M -75.733,0 V -9.031 H -23.07 L -26.425,0 Z" /></g><g
       transform="translate(400.7815,455.2398)"
       id="g80"><path
         id="path82"
         style="fill:#373535;fill-opacity:1;fill-rule:nonzero;stroke:none"
         d="M 0,0 -4.191,-11.668 H 52.646 V 0 Z m -72.641,0 v -11.668 h 56.84 L -20.134,0 Z" /></g><g
       transform="translate(411.1827,484.1973)"
       id="g84"><path
         id="path86"
         style="fill:#ffffff;fill-opacity:1;fill-rule:nonzero;stroke:none"
         d="M 0,0 -3.246,-9.038 H 62.188 V 0 Z m -103.371,0 v -9.038 h 65.437 L -41.29,0 Z" /></g><g
       transform="translate(408.0913,475.5906)"
       id="g88"><path
         id="path90"
         style="fill:#373535;fill-opacity:1;fill-rule:nonzero;stroke:none"
         d="m 0,0 -4.193,-11.673 h 49.529 v 0.558 H 65.28 V 0 Z m -100.28,0 v -11.505 l 17.519,-0.168 h 52.094 L -35.002,0 Z" /></g><g
       transform="translate(307.8117,495.4554)"
       id="g92"><path
         id="path94"
         style="fill:#373535;fill-opacity:1;fill-rule:nonzero;stroke:none"
         d="M 0,0 V -11.191 H 62.056 L 57.9,0 Z m 107.275,-0.388 -3.88,-10.803 h 62.164 v 10.803 z" /></g><path
       id="path96"
       style="fill:#ffffff;fill-opacity:1;fill-rule:nonzero;stroke:none"
       d="m 97.336,356.21 h 74.058 v 9.032 H 97.336 Z" /><g
       transform="translate(97.3359,356.6349)"
       id="g98"><path
         id="path100"
         style="fill:#373535;fill-opacity:1;fill-rule:nonzero;stroke:none"
         d="m 0,0 v -11.44 l 74.058,0.151 V 0 Z" /></g><g
       transform="translate(118.3041,384.0255)"
       id="g102"><path
         id="path104"
         style="fill:#ffffff;fill-opacity:1;fill-rule:nonzero;stroke:none"
         d="M 0,0 V -7.602 H -20.968 V -9.033 H 53.09 v 1.28 H 32.568 V 0 Z" /></g><path
       id="path106"
       style="fill:#373535;fill-opacity:1;fill-rule:nonzero;stroke:none"
       d="m 97.336,363.751 h 74.058 v 11.667 H 97.336 Z" /><path
       id="path108"
       style="fill:#ffffff;fill-opacity:1;fill-rule:nonzero;stroke:none"
       d="m 118.304,395.338 h 32.568 v 9.034 h -32.568 z" /><path
       id="path110"
       style="fill:#373535;fill-opacity:1;fill-rule:nonzero;stroke:none"
       d="m 118.304,384.096 h 32.568 v 11.669 h -32.568 z" /><path
       id="path112"
       style="fill:#ffffff;fill-opacity:1;fill-rule:nonzero;stroke:none"
       d="m 118.304,415.687 h 32.568 v 9.034 h -32.568 z" /><path
       id="path114"
       style="fill:#373535;fill-opacity:1;fill-rule:nonzero;stroke:none"
       d="m 118.304,404.444 h 32.568 v 11.668 h -32.568 z" /><path
       id="path116"
       style="fill:#ffffff;fill-opacity:1;fill-rule:nonzero;stroke:none"
       d="m 118.304,436.031 h 32.568 v 9.038 h -32.568 z" /><path
       id="path118"
       style="fill:#373535;fill-opacity:1;fill-rule:nonzero;stroke:none"
       d="m 118.304,424.791 h 32.568 v 11.669 h -32.568 z" /><path
       id="path120"
       style="fill:#ffffff;fill-opacity:1;fill-rule:nonzero;stroke:none"
       d="m 118.304,454.819 h 32.568 v 9.031 h -32.568 z" /><path
       id="path122"
       style="fill:#373535;fill-opacity:1;fill-rule:nonzero;stroke:none"
       d="m 118.304,443.572 h 32.568 v 11.668 h -32.568 z" /><path
       id="path124"
       style="fill:#ffffff;fill-opacity:1;fill-rule:nonzero;stroke:none"
       d="m 97.04,475.159 h 74.056 v 9.038 H 97.04 Z" /><g
       transform="translate(97.0398,475.5906)"
       id="g126"><path
         id="path128"
         style="fill:#373535;fill-opacity:1;fill-rule:nonzero;stroke:none"
         d="m 0,0 v -11.432 h 21.264 v -0.241 h 32.569 v 0.693 H 74.056 V 0 Z" /></g><path
       id="path130"
       style="fill:#373535;fill-opacity:1;fill-rule:nonzero;stroke:none"
       d="m 97.04,484.265 h 74.056 v 10.678 H 97.04 Z" /><g
       id="g132"><g
         clip-path="url(#clipPath138)"
         id="g134"><g
           transform="translate(499.9102,375.4964)"
           id="g140"><path
             id="path142"
             style="fill:#373535;fill-opacity:1;fill-rule:nonzero;stroke:none"
             d="m 0,0 c -7.865,0 -14.257,-6.396 -14.257,-14.255 0,-7.857 6.392,-14.254 14.257,-14.254 7.855,0 14.252,6.397 14.252,14.254 C 14.252,-6.396 7.855,0 0,0 m 0,-31.33 c -9.415,0 -17.072,7.66 -17.072,17.075 0,9.416 7.657,17.076 17.072,17.076 9.41,0 17.073,-7.66 17.073,-17.076 C 17.073,-23.67 9.41,-31.33 0,-31.33" /></g><g
           transform="translate(495.6914,361.9251)"
           id="g144"><path
             id="path146"
             style="fill:#373535;fill-opacity:1;fill-rule:nonzero;stroke:none"
             d="M 0,0 H 5.147 C 6.245,0 7.101,0.114 7.719,0.342 8.334,0.565 8.805,0.93 9.127,1.426 9.446,1.928 9.605,2.465 9.605,3.05 9.605,3.905 9.294,4.612 8.676,5.164 8.053,5.711 7.068,5.989 5.729,5.989 H 0 Z m -2.395,-10.113 v 18.1 h 8.022 c 1.615,0 2.842,-0.159 3.68,-0.486 0.843,-0.326 1.511,-0.897 2.013,-1.722 0.501,-0.823 0.754,-1.734 0.754,-2.729 0,-1.284 -0.418,-2.368 -1.243,-3.247 -0.833,-0.879 -2.119,-1.441 -3.856,-1.684 0.632,-0.299 1.114,-0.6 1.448,-0.896 0.696,-0.644 1.36,-1.45 1.985,-2.411 l 3.151,-4.925 H 10.542 L 8.149,-6.348 C 7.45,-5.26 6.873,-4.432 6.42,-3.849 5.967,-3.273 5.562,-2.874 5.201,-2.641 4.848,-2.413 4.482,-2.256 4.107,-2.16 3.839,-2.099 3.394,-2.073 2.775,-2.073 H 0 v -8.04 z" /></g></g></g></g></svg>