<?xml version="1.0" encoding="UTF-8" standalone="no"?>
<svg
   xmlns:dc="http://purl.org/dc/elements/1.1/"
   xmlns:cc="http://creativecommons.org/ns#"
   xmlns:rdf="http://www.w3.org/1999/02/22-rdf-syntax-ns#"
   xmlns:svg="http://www.w3.org/2000/svg"
   xmlns="http://www.w3.org/2000/svg"
   viewBox="0 0 258.66666 258.66666"
   height="258.66666"
   width="258.66666"
   xml:space="preserve"
   id="svg2"
   version="1.1"><metadata
     id="metadata8"><rdf:RDF><cc:Work
         rdf:about=""><dc:format>image/svg+xml</dc:format><dc:type
           rdf:resource="http://purl.org/dc/dcmitype/StillImage" /></cc:Work></rdf:RDF></metadata><defs
     id="defs6" /><g
     transform="matrix(1.3333333,0,0,-1.3333333,0,258.66667)"
     id="g10"><g
       transform="scale(0.1)"
       id="g12"><path
         id="path14"
         style="fill:#ffffff;fill-opacity:0;fill-rule:evenodd;stroke:none"
         d="M 2.59766,1933.23 H 1930.16 V 5.66797 H 2.59766 V 1933.23" /><path
         id="path16"
         style="fill:#335655;fill-opacity:1;fill-rule:evenodd;stroke:none"
         d="m 231.938,738.203 h 14.796 v -111 h -14.796 v 111" /><path
         id="path18"
         style="fill:#335655;fill-opacity:1;fill-rule:evenodd;stroke:none"
         d="m 283.734,690.102 v 0 c 7.399,7.398 14.801,11.097 22.204,11.097 14.8,0 25.898,-7.398 25.898,-29.597 v -44.399 h -14.801 v 44.399 c 0,11.101 -7.398,18.5 -14.801,18.5 -7.398,0 -11.101,-3.7 -18.5,-11.098 v -51.801 h -14.796 v 73.996 h 14.796 v -11.097" /><path
         id="path20"
         style="fill:#335655;fill-opacity:1;fill-rule:evenodd;stroke:none"
         d="m 368.836,701.199 h 22.199 v -14.797 h -22.199 v -37 c 0,-7.398 3.699,-11.097 7.398,-11.097 7.399,0 11.098,3.699 18.5,7.394 v -14.797 c -7.402,-3.699 -14.8,-3.699 -18.5,-3.699 -14.8,0 -22.199,7.402 -22.199,22.199 v 37 h -14.801 v 3.7 L 368.836,716 v -14.801" /><path
         id="path22"
         style="fill:#335655;fill-opacity:1;fill-rule:evenodd;stroke:none"
         d="m 416.934,671.602 c 3.703,11.101 7.402,18.5 18.5,18.5 11.101,0 18.5,-7.399 18.5,-18.5 z m 48.101,-22.2 c -7.402,-7.398 -14.801,-11.097 -22.203,-11.097 -14.797,0 -22.195,7.394 -25.898,22.199 h 51.8 c 0,29.598 -14.8,40.695 -33.3,40.695 -18.5,0 -33.301,-14.797 -33.301,-36.996 0,-18.504 14.801,-37 37,-37 11.101,0 18.5,3.699 25.902,7.402 v 14.797" /><path
         id="path24"
         style="fill:#335655;fill-opacity:1;fill-rule:evenodd;stroke:none"
         d="m 498.332,701.199 v -18.496 c 7.402,14.797 14.801,18.496 22.203,18.496 3.699,0 11.098,-3.699 14.797,-7.398 l -7.398,-14.797 c -3.7,7.398 -7.399,7.398 -11.098,7.398 -11.102,0 -18.504,-7.398 -18.504,-22.199 v -37 h -14.801 v 73.996 h 14.801" /><path
         id="path26"
         style="fill:#335655;fill-opacity:1;fill-rule:evenodd;stroke:none"
         d="m 564.934,690.102 v 0 c 3.699,7.398 11.097,11.097 18.496,11.097 14.8,0 25.902,-7.398 25.902,-29.597 v -44.399 h -14.801 v 44.399 c 0,11.101 -3.699,18.5 -14.797,18.5 -3.703,0 -11.101,-3.7 -14.8,-11.098 v -51.801 h -14.801 v 73.996 h 14.801 v -11.097" /><path
         id="path28"
         style="fill:#335655;fill-opacity:1;fill-rule:evenodd;stroke:none"
         d="m 664.832,642.004 c -3.699,-3.699 -11.102,-3.699 -14.801,-3.699 -3.699,0 -11.101,3.699 -11.101,7.394 0,11.102 11.101,14.805 25.902,18.504 z m 22.199,0 c -3.699,-3.699 -3.699,-3.699 -7.398,-3.699 0,0 -3.699,0 -3.699,3.699 v 37 c 0,14.797 -11.102,22.195 -25.903,22.195 -7.402,0 -18.5,-3.699 -22.199,-11.097 v -14.797 c 7.398,7.398 14.797,11.097 22.199,11.097 7.403,0 14.801,-3.699 14.801,-11.097 v -3.703 l -14.801,-3.7 c -11.101,-3.699 -22.199,-11.101 -22.199,-22.203 0,-11.094 3.699,-18.496 14.797,-18.496 7.402,0 14.805,0 22.203,7.402 0,-7.402 3.699,-7.402 11.102,-7.402 3.699,0 3.699,0 11.097,3.699 v 11.102" /><path
         id="path30"
         style="fill:#335655;fill-opacity:1;fill-rule:evenodd;stroke:none"
         d="m 720.332,701.199 h 22.199 v -14.797 h -22.199 v -37 c 0,-7.398 7.398,-11.097 11.098,-11.097 3.699,0 11.101,3.699 14.8,7.394 v -14.797 c -3.699,-3.699 -11.101,-3.699 -14.8,-3.699 -18.5,0 -25.899,7.402 -25.899,22.199 v 37 H 694.43 v 3.7 L 720.332,716 v -14.801" /><path
         id="path32"
         style="fill:#335655;fill-opacity:1;fill-rule:evenodd;stroke:none"
         d="m 761.031,701.199 h 14.801 v -73.996 h -14.801 z m 7.399,11.102 c -7.399,0 -11.098,3.699 -11.098,11.101 0,3.7 3.699,7.403 11.098,7.403 3.703,0 7.402,-3.703 7.402,-7.403 0,-7.402 -3.699,-11.101 -7.402,-11.101" /><path
         id="path34"
         style="fill:#335655;fill-opacity:1;fill-rule:evenodd;stroke:none"
         d="m 831.328,690.102 c 11.102,0 22.199,-11.098 22.199,-25.899 0,-14.801 -7.398,-25.898 -22.199,-25.898 -14.797,0 -25.898,11.097 -25.898,25.898 0,14.801 11.101,25.899 25.898,25.899 z m 0,11.097 c -22.199,0 -40.699,-14.797 -40.699,-36.996 0,-22.199 18.5,-37 40.699,-37 22.199,0 37.004,14.801 37.004,37 0,22.199 -14.805,36.996 -37.004,36.996" /><path
         id="path36"
         style="fill:#335655;fill-opacity:1;fill-rule:evenodd;stroke:none"
         d="m 901.629,690.102 v 0 c 3.699,7.398 11.101,11.097 22.199,11.097 11.102,0 22.199,-7.398 22.199,-29.597 v -44.399 h -14.8 v 44.399 c 0,11.101 -3.7,18.5 -11.098,18.5 -7.399,0 -14.801,-3.7 -18.5,-11.098 v -51.801 h -14.801 v 73.996 h 14.801 v -11.097" /><path
         id="path38"
         style="fill:#335655;fill-opacity:1;fill-rule:evenodd;stroke:none"
         d="m 1001.53,642.004 c -3.702,-3.699 -7.405,-3.699 -14.803,-3.699 -3.7,0 -7.399,3.699 -7.399,7.394 0,11.102 7.399,14.805 22.202,18.504 z m 22.2,0 c -3.7,-3.699 -3.7,-3.699 -7.4,-3.699 0,0 0,0 0,3.699 v 37 c 0,14.797 -14.8,22.195 -29.603,22.195 -7.399,0 -14.797,-3.699 -22.2,-11.097 v -14.797 c 7.403,7.398 14.801,11.097 22.2,11.097 11.101,0 14.803,-3.699 14.803,-11.097 v -3.703 l -14.803,-3.7 c -11.098,-3.699 -22.2,-11.101 -22.2,-22.203 0,-11.094 7.403,-18.496 14.801,-18.496 7.399,0 14.797,0 22.202,7.402 0,-7.402 3.7,-7.402 11.1,-7.402 3.7,0 7.4,0 11.1,3.699 v 11.102" /><path
         id="path40"
         style="fill:#335655;fill-opacity:1;fill-rule:evenodd;stroke:none"
         d="m 1038.53,738.203 h 14.8 v -111 h -14.8 v 111" /><path
         id="path42"
         style="fill:#335655;fill-opacity:1;fill-rule:evenodd;stroke:none"
         d="m 1186.52,712.301 c -11.09,11.101 -18.49,11.101 -25.89,11.101 -11.1,0 -18.5,-3.699 -18.5,-11.101 0,-22.199 48.09,-22.199 48.09,-55.5 0,-18.496 -14.79,-29.598 -29.59,-29.598 -14.81,0 -22.2,3.699 -33.3,11.102 v 18.496 c 7.4,-11.102 18.49,-14.797 29.6,-14.797 11.1,0 18.5,7.398 18.5,11.098 0,22.203 -48.1,25.902 -48.1,55.5 0,18.5 14.8,29.601 33.3,29.601 7.4,0 18.5,-3.699 25.89,-7.398 v -18.504" /><path
         id="path44"
         style="fill:#335655;fill-opacity:1;fill-rule:evenodd;stroke:none"
         d="m 1223.53,701.199 h 25.9 v -14.797 h -25.9 v -37 c 0,-7.398 7.4,-11.097 11.1,-11.097 7.39,0 11.09,3.699 18.5,7.394 v -14.797 c -7.41,-3.699 -14.81,-3.699 -18.5,-3.699 -14.8,0 -22.2,7.402 -22.2,22.199 v 37 h -14.8 v 3.7 l 25.9,25.898 v -14.801" /><path
         id="path46"
         style="fill:#335655;fill-opacity:1;fill-rule:evenodd;stroke:none"
         d="m 1301.22,642.004 c -3.7,-3.699 -7.4,-3.699 -11.09,-3.699 -7.41,0 -11.1,3.699 -11.1,7.394 0,11.102 11.1,14.805 22.19,18.504 z m 25.91,0 c -3.7,-3.699 -7.4,-3.699 -7.4,-3.699 -3.71,0 -3.71,0 -3.71,3.699 v 37 c 0,14.797 -11.09,22.195 -25.89,22.195 -11.1,0 -18.5,-3.699 -25.9,-11.097 v -14.797 c 7.4,7.398 18.49,11.097 25.9,11.097 7.39,0 11.09,-3.699 11.09,-11.097 v -3.703 l -11.09,-3.7 c -11.1,-3.699 -25.9,-11.101 -25.9,-22.203 0,-11.094 7.4,-18.496 18.49,-18.496 7.41,0 11.1,0 18.5,7.402 0,-7.402 3.71,-7.402 11.1,-7.402 3.7,0 7.41,0 14.81,3.699 v 11.102" /><path
         id="path48"
         style="fill:#335655;fill-opacity:1;fill-rule:evenodd;stroke:none"
         d="m 1353.02,690.102 h 3.7 c 3.71,7.398 11.1,11.097 18.51,11.097 14.79,0 25.89,-7.398 25.89,-29.597 v -44.399 h -14.8 v 44.399 c 0,11.101 -3.69,18.5 -14.8,18.5 -3.7,0 -11.09,-3.7 -18.5,-11.098 v -51.801 h -11.1 v 73.996 h 11.1 v -11.097" /><path
         id="path50"
         style="fill:#335655;fill-opacity:1;fill-rule:evenodd;stroke:none"
         d="m 1467.72,638.305 h -11.1 c -18.5,0 -22.2,11.097 -22.2,25.898 0,14.801 7.4,25.899 22.2,25.899 3.7,0 7.4,-3.7 11.1,-3.7 z m 14.8,99.898 h -14.8 V 697.5 c -3.7,3.699 -7.4,3.699 -14.8,3.699 -18.5,0 -33.29,-14.797 -33.29,-36.996 0,-22.199 11.09,-37 33.29,-37 h 29.6 v 111" /><path
         id="path52"
         style="fill:#335655;fill-opacity:1;fill-rule:evenodd;stroke:none"
         d="m 1538.02,642.004 c -3.7,-3.699 -7.4,-3.699 -11.1,-3.699 -7.4,0 -11.1,3.699 -11.1,7.394 0,11.102 11.1,14.805 22.2,18.504 z m 25.9,0 c -3.7,-3.699 -7.4,-3.699 -7.4,-3.699 -3.7,0 -3.7,0 -3.7,3.699 v 37 c 0,14.797 -11.1,22.195 -25.9,22.195 -11.1,0 -18.5,-3.699 -25.9,-11.097 v -14.797 c 7.4,7.398 14.8,11.097 22.2,11.097 11.1,0 14.8,-3.699 14.8,-11.097 v -3.703 l -11.1,-3.7 c -14.8,-3.699 -25.9,-11.101 -25.9,-22.203 0,-11.094 7.4,-18.496 18.5,-18.496 3.7,0 11.1,0 18.5,7.402 0,-7.402 3.7,-7.402 11.1,-7.402 3.7,0 7.4,0 14.8,3.699 v 11.102" /><path
         id="path54"
         style="fill:#335655;fill-opacity:1;fill-rule:evenodd;stroke:none"
         d="m 1589.82,701.199 v -18.496 c 7.4,14.797 14.8,18.496 22.2,18.496 3.7,0 11.1,-3.699 18.5,-7.398 l -7.4,-14.797 c -7.4,7.398 -11.1,7.398 -14.8,7.398 -11.1,0 -18.5,-7.398 -18.5,-22.199 v -37 h -14.8 v 73.996 h 14.8" /><path
         id="path56"
         style="fill:#335655;fill-opacity:1;fill-rule:evenodd;stroke:none"
         d="m 1686.02,638.305 h -14.8 c -14.8,0 -22.2,11.097 -22.2,25.898 0,14.801 11.1,25.899 25.9,25.899 3.7,0 7.4,-3.7 11.1,-3.7 z m 14.8,99.898 h -14.8 V 697.5 c -3.7,3.699 -11.1,3.699 -14.8,3.699 -22.2,0 -37,-14.797 -37,-36.996 0,-22.199 14.8,-37 37,-37 h 29.6 v 111" /><path
         id="path58"
         style="fill:#335655;fill-opacity:1;fill-rule:evenodd;stroke:none"
         d="m 132.035,571.703 c -3.699,3.699 -3.699,3.699 -7.398,3.699 -11.098,0 -14.797,-7.398 -14.797,-18.5 v -7.398 h 14.797 V 538.406 H 109.84 V 479.207 H 95.0391 v 59.199 h -7.4024 v 11.098 h 7.4024 v 7.398 c 0,11.102 3.6992,18.5 11.0979,25.903 7.402,3.699 14.801,7.398 25.898,3.699 v -14.801" /><path
         id="path60"
         style="fill:#335655;fill-opacity:1;fill-rule:evenodd;stroke:none"
         d="m 169.039,538.406 c 14.797,0 25.899,-11.101 25.899,-22.203 0,-18.5 -11.102,-25.898 -25.899,-25.898 -14.801,0 -22.203,7.398 -22.203,25.898 0,11.102 11.102,22.203 22.203,22.203 z m 0,14.797 c -22.203,0 -37.004,-18.5 -37.004,-37 0,-22.199 14.801,-40.699 37.004,-40.699 22.195,0 40.699,14.801 40.699,40.699 0,18.5 -18.504,37 -40.699,37" /><path
         id="path62"
         style="fill:#335655;fill-opacity:1;fill-rule:evenodd;stroke:none"
         d="m 239.336,549.504 v -14.801 c 7.398,11.102 14.801,18.5 22.199,18.5 7.403,0 11.102,-3.699 18.5,-11.101 l -7.398,-11.098 c -7.399,3.699 -11.102,7.402 -14.801,7.402 -11.102,0 -18.5,-11.101 -18.5,-22.203 v -36.996 h -14.797 v 70.297 h 14.797" /><path
         id="path64"
         style="fill:#335655;fill-opacity:1;fill-rule:evenodd;stroke:none"
         d="m 346.633,586.504 h 18.504 V 479.207 h -18.504 v 107.297" /><path
         id="path66"
         style="fill:#335655;fill-opacity:1;fill-rule:evenodd;stroke:none"
         d="m 402.133,542.102 v 0 c 3.703,3.703 11.101,11.101 18.504,11.101 14.797,0 25.898,-11.101 25.898,-29.598 v -44.398 h -14.801 v 44.398 c 0,11.098 -3.699,14.801 -14.8,14.801 -3.7,0 -11.098,0 -14.801,-7.402 v -51.797 h -14.801 v 70.297 h 14.801 v -7.402" /><path
         id="path68"
         style="fill:#335655;fill-opacity:1;fill-rule:evenodd;stroke:none"
         d="m 505.734,571.703 c -3.703,3.699 -3.703,3.699 -7.402,3.699 -11.102,0 -14.801,-7.398 -14.801,-18.5 v -7.398 h 11.102 v -11.098 h -11.102 v -59.199 h -14.797 v 59.199 h -11.101 v 11.098 h 11.101 v 7.398 c 0,11.102 3.7,18.5 7.399,25.903 7.398,3.699 14.801,7.398 29.601,3.699 v -14.801" /><path
         id="path70"
         style="fill:#335655;fill-opacity:1;fill-rule:evenodd;stroke:none"
         d="m 542.73,538.406 c 11.102,0 22.204,-11.101 22.204,-22.203 0,-18.5 -7.403,-25.898 -22.204,-25.898 -14.796,0 -25.894,7.398 -25.894,25.898 0,11.102 11.098,22.203 25.894,22.203 z m 0,14.797 c -22.195,0 -40.699,-18.5 -40.699,-37 0,-22.199 18.504,-40.699 40.699,-40.699 22.204,0 37.004,14.801 37.004,40.699 0,18.5 -14.8,37 -37.004,37" /><path
         id="path72"
         style="fill:#335655;fill-opacity:1;fill-rule:evenodd;stroke:none"
         d="m 613.031,549.504 v -14.801 c 7.403,11.102 14.801,18.5 18.5,18.5 7.399,0 11.098,-3.699 18.5,-11.101 l -7.402,-11.098 c -3.699,3.699 -11.098,7.402 -14.797,7.402 -7.398,0 -14.801,-11.101 -14.801,-22.203 V 479.207 H 598.23 v 70.297 h 14.801" /><path
         id="path74"
         style="fill:#335655;fill-opacity:1;fill-rule:evenodd;stroke:none"
         d="m 675.934,549.504 v -7.402 c 7.398,7.402 14.796,11.101 22.195,11.101 7.402,0 14.801,-7.398 22.203,-14.797 3.699,7.399 11.098,14.797 22.199,14.797 14.801,0 25.899,-14.797 25.899,-29.598 v -44.398 h -14.801 v 44.398 c 0,11.098 -7.399,14.801 -14.801,14.801 -7.398,0 -11.098,-3.703 -18.496,-7.402 v -51.797 h -14.801 v 44.398 c 0,11.098 -3.699,14.801 -11.101,14.801 -7.399,0 -11.098,0 -18.496,-7.402 v -51.797 h -14.801 v 70.297 h 14.801" /><path
         id="path76"
         style="fill:#335655;fill-opacity:1;fill-rule:evenodd;stroke:none"
         d="m 820.23,494.004 c -3.699,-3.699 -7.398,-7.399 -11.101,-7.399 -7.399,0 -11.098,3.7 -11.098,11.098 0,7.399 11.098,11.102 22.199,14.801 z m 25.899,-3.699 c -3.699,-3.7 -7.402,-3.7 -7.402,-3.7 -3.7,0 -3.7,0 -3.7,3.7 v 37 c 0,18.5 -11.097,25.898 -25.898,25.898 -11.098,0 -18.5,-3.699 -22.199,-11.101 v -14.797 c 3.699,7.398 14.8,11.101 22.199,11.101 7.402,0 11.101,-3.703 11.101,-14.801 v -3.699 l -11.101,-3.703 c -11.098,-3.699 -25.899,-7.398 -25.899,-22.199 0,-11.098 7.399,-18.5 18.5,-18.5 7.399,0 14.801,3.703 18.5,7.402 3.7,-3.699 3.7,-7.402 11.098,-7.402 3.699,0 7.399,3.703 14.801,7.402 v 7.399" /><path
         id="path78"
         style="fill:#335655;fill-opacity:1;fill-rule:evenodd;stroke:none"
         d="m 879.43,549.504 h 22.199 V 538.406 H 879.43 v -37.004 c 0,-11.097 3.699,-11.097 11.097,-11.097 3.7,0 7.403,0 14.801,3.699 v -11.098 c -3.699,-3.699 -14.801,-7.402 -18.5,-7.402 -14.797,0 -22.199,11.101 -22.199,22.199 v 40.703 h -14.801 v 0 l 29.602,25.899 v -14.801" /><path
         id="path80"
         style="fill:#335655;fill-opacity:1;fill-rule:evenodd;stroke:none"
         d="m 916.43,549.504 h 14.797 V 479.207 H 916.43 Z m 7.398,14.801 c -3.699,0 -7.398,3.699 -7.398,7.398 0,3.699 3.699,7.402 7.398,7.402 7.399,0 11.102,-3.703 11.102,-7.402 0,-3.699 -3.703,-7.398 -11.102,-7.398" /><path
         id="path82"
         style="fill:#335655;fill-opacity:1;fill-rule:evenodd;stroke:none"
         d="m 986.727,538.406 c 14.803,0 25.903,-11.101 25.903,-22.203 0,-18.5 -11.1,-25.898 -25.903,-25.898 -14.797,0 -22.2,7.398 -22.2,25.898 0,11.102 7.403,22.203 22.2,22.203 z m 0,14.797 c -22.2,0 -37,-18.5 -37,-37 0,-22.199 14.8,-40.699 37,-40.699 22.203,0 40.703,14.801 40.703,40.699 0,18.5 -18.5,37 -40.703,37" /><path
         id="path84"
         style="fill:#335655;fill-opacity:1;fill-rule:evenodd;stroke:none"
         d="m 1057.03,542.102 v 0 c 7.4,3.703 14.8,11.101 22.2,11.101 14.8,0 25.9,-11.101 25.9,-29.598 v -44.398 h -14.81 v 44.398 c 0,11.098 -7.39,14.801 -14.79,14.801 -7.4,0 -11.1,0 -18.5,-7.402 v -51.797 h -14.8 v 70.297 h 14.8 v -7.402" /><path
         id="path86"
         style="fill:#335655;fill-opacity:1;fill-rule:evenodd;stroke:none"
         d="m 1234.63,564.305 c -7.4,7.398 -18.5,11.097 -25.9,11.097 -7.41,0 -14.8,-7.398 -14.8,-14.8 0,-18.5 48.09,-18.5 48.09,-55.5 0,-14.797 -14.79,-29.598 -33.29,-29.598 -11.1,0 -22.21,3.703 -29.6,11.101 v 18.497 c 7.39,-7.399 18.5,-14.797 29.6,-14.797 11.1,0 18.5,7.398 18.5,14.797 0,22.203 -48.1,25.902 -48.1,55.5 0,18.503 11.09,29.601 33.3,29.601 7.4,0 14.8,-3.699 22.2,-7.398 v -18.5" /><path
         id="path88"
         style="fill:#335655;fill-opacity:1;fill-rule:evenodd;stroke:none"
         d="m 1271.63,519.906 c 0,11.098 7.4,18.5 18.5,18.5 11.09,0 14.8,-7.402 14.8,-18.5 z m 48.1,-22.203 c -7.41,-3.699 -18.51,-7.398 -25.91,-7.398 -14.79,0 -22.19,7.398 -25.89,22.199 h 51.8 c 0,25.902 -11.1,40.699 -29.6,40.699 -22.2,0 -33.31,-14.797 -33.31,-37 0,-22.199 11.11,-40.699 33.31,-40.699 11.09,0 18.5,3.703 29.6,11.101 v 11.098" /><path
         id="path90"
         style="fill:#335655;fill-opacity:1;fill-rule:evenodd;stroke:none"
         d="m 1390.02,531.004 c -7.39,7.402 -14.79,7.402 -18.5,7.402 -14.8,0 -22.2,-11.101 -22.2,-25.902 0,-14.801 7.4,-22.199 22.2,-22.199 7.41,0 14.8,0 22.2,3.699 v -14.797 c -7.4,0 -14.79,-3.703 -22.2,-3.703 -22.2,0 -37,14.801 -37,37 0,22.199 14.8,40.699 37,40.699 7.41,0 11.11,-3.699 18.5,-7.398 v -14.801" /><path
         id="path92"
         style="fill:#335655;fill-opacity:1;fill-rule:evenodd;stroke:none"
         d="m 1452.92,479.207 v 7.398 c -7.4,-7.398 -14.8,-11.101 -22.2,-11.101 -14.8,0 -25.9,11.101 -25.9,29.598 v 44.402 h 14.81 v -44.402 c 0,-11.098 7.39,-18.497 14.79,-18.497 7.4,0 14.8,3.7 18.5,11.098 v 51.801 h 14.8 v -70.297 h -14.8" /><path
         id="path94"
         style="fill:#335655;fill-opacity:1;fill-rule:evenodd;stroke:none"
         d="m 1501.02,549.504 v -14.801 c 7.4,11.102 14.8,18.5 22.2,18.5 7.4,0 11.1,-3.699 18.5,-11.101 l -7.4,-11.098 c -7.4,3.699 -11.1,7.402 -14.8,7.402 -11.1,0 -18.5,-11.101 -18.5,-22.203 v -36.996 h -14.8 v 70.297 h 14.8" /><path
         id="path96"
         style="fill:#335655;fill-opacity:1;fill-rule:evenodd;stroke:none"
         d="m 1552.82,549.504 h 14.8 v -70.297 h -14.8 z m 7.4,14.801 c -3.7,0 -7.4,3.699 -7.4,7.398 0,3.699 3.7,7.402 7.4,7.402 3.7,0 7.4,-3.703 7.4,-7.402 0,-3.699 -3.7,-7.398 -7.4,-7.398" /><path
         id="path98"
         style="fill:#335655;fill-opacity:1;fill-rule:evenodd;stroke:none"
         d="m 1608.32,549.504 h 22.2 v -11.098 h -22.2 v -37.004 c 0,-11.097 3.7,-11.097 7.4,-11.097 7.4,0 11.1,0 18.5,3.699 v -11.098 c -3.7,-3.699 -14.8,-7.402 -18.5,-7.402 -14.8,0 -22.2,11.101 -22.2,22.199 v 40.703 h -14.8 v 0 l 29.6,25.899 v -14.801" /><path
         id="path100"
         style="fill:#335655;fill-opacity:1;fill-rule:evenodd;stroke:none"
         d="m 1660.12,442.203 h -14.8 l 22.2,51.801 -25.9,55.5 h 14.8 l 18.5,-40.699 18.5,40.699 h 18.5 l -51.8,-107.301" /><path
         id="path102"
         style="fill:#335655;fill-opacity:1;fill-rule:evenodd;stroke:none"
         d="m 520.535,1382 h 66.598 V 908.398 H 520.535 V 1382" /><path
         id="path104"
         style="fill:#335655;fill-opacity:1;fill-rule:evenodd;stroke:none"
         d="m 923.828,1278.39 c -40.699,37 -77.699,48.11 -110.996,48.11 -44.402,0 -74.004,-22.21 -74.004,-55.5 0,-92.5 203.5,-88.8 203.5,-240.5 0,-74 -55.5,-125.801 -133.199,-125.801 -51.797,0 -92.496,11.102 -129.496,40.699 v 88.802 c 33.297,-44.399 77.699,-70.302 122.097,-70.302 55.5,0 77.7,33.301 77.7,59.202 0,99.9 -203.496,111 -203.496,240.49 0,74.01 55.496,125.8 144.296,125.8 33.297,0 70.297,-11.09 103.598,-33.3 v -77.7" /><path
         id="path106"
         style="fill:#335655;fill-opacity:1;fill-rule:evenodd;stroke:none"
         d="m 1404.82,1278.39 c -55.5,33.31 -107.3,48.11 -162.8,48.11 -107.29,0 -188.69,-77.71 -188.69,-181.3 0,-107.3 77.7,-181.302 192.39,-181.302 51.8,0 111,18.5 166.5,55.502 v -74.002 c -48.09,-25.898 -99.9,-40.699 -173.9,-40.699 -177.59,0 -255.293,133.201 -255.293,233.101 0,144.3 111.003,251.59 258.993,251.59 51.8,0 99.9,-11.09 162.8,-40.69 v -70.31" /><path
         id="path108"
         style="fill:#335655;fill-opacity:1;fill-rule:evenodd;stroke:none"
         d="m 1730.42,1182.2 h -96.2 v 3.7 c 18.5,18.49 40.7,48.1 51.8,66.6 7.4,14.8 11.1,22.2 11.1,33.3 0,18.49 -11.1,29.59 -25.9,29.59 -11.1,0 -22.2,-7.39 -33.3,-22.19 v 25.89 c 11.1,11.11 22.2,14.8 37,14.8 25.9,0 44.4,-18.5 44.4,-44.39 0,-25.91 -14.8,-44.4 -48.1,-85.11 h 59.2 v -22.19" /><path
         id="path110"
         style="fill:#335655;fill-opacity:1;fill-rule:evenodd;stroke:none"
         d="m 283.734,1134.1 c 0,-136.901 81.403,-262.698 210.899,-347.799 11.101,7.398 22.203,14.801 37,22.199 -99.899,85.102 -159.098,199.8 -159.098,325.6 0,136.9 70.297,258.99 184.996,347.79 -14.801,3.7 -25.898,11.1 -33.297,14.8 -148,-85.1 -240.5,-218.3 -240.5,-362.59" /><path
         id="path112"
         style="fill:#335655;fill-opacity:1;fill-rule:evenodd;stroke:none"
         d="m 1367.82,1496.69 c -11.1,-3.7 -22.2,-11.1 -33.3,-14.8 114.7,-88.8 185,-210.89 185,-347.79 0,-125.8 -59.2,-240.498 -159.09,-325.6 11.09,-7.398 22.2,-14.801 33.29,-22.199 133.2,85.101 214.6,210.898 214.6,347.799 0,144.29 -92.5,277.49 -240.5,362.59" /><path
         id="path114"
         style="fill:#335655;fill-opacity:1;fill-rule:evenodd;stroke:none"
         d="m 1771.12,1282.1 h 7.4 v 36.99 h 14.8 v 7.41 h -37 v -7.41 h 14.8 z m 29.6,0 h 7.4 v 36.99 l 11.1,-36.99 h 7.4 l 11.1,36.99 v 0 -36.99 h 7.4 v 44.4 h -11.1 l -11.1,-37 v 0 l -11.1,37 h -11.1 v -44.4" /></g></g></svg>