<?xml version="1.0" encoding="UTF-8" standalone="no"?>
<svg
   xmlns:dc="http://purl.org/dc/elements/1.1/"
   xmlns:cc="http://creativecommons.org/ns#"
   xmlns:rdf="http://www.w3.org/1999/02/22-rdf-syntax-ns#"
   xmlns:svg="http://www.w3.org/2000/svg"
   xmlns="http://www.w3.org/2000/svg"
   viewBox="0 0 459.07199 152.74268"
   height="152.74268"
   width="459.07199"
   xml:space="preserve"
   id="svg2"
   version="1.1"><metadata
     id="metadata8"><rdf:RDF><cc:Work
         rdf:about=""><dc:format>image/svg+xml</dc:format><dc:type
           rdf:resource="http://purl.org/dc/dcmitype/StillImage" /></cc:Work></rdf:RDF></metadata><defs
     id="defs6"><clipPath
       id="clipPath34"
       clipPathUnits="userSpaceOnUse"><path
         id="path32"
         d="M 0,114.557 H 344.304 V 0 H 0 Z" /></clipPath></defs><g
     transform="matrix(1.3333333,0,0,-1.3333333,0,152.74267)"
     id="g10"><g
       transform="translate(168.6426,30.6104)"
       id="g12"><path
         id="path14"
         style="fill:#6f8fa6;fill-opacity:1;fill-rule:nonzero;stroke:none"
         d="M 0,0 H 1.954 L 12.025,-13.884 V 0 H 13.75 V -16.839 H 12.111 L 1.727,-2.544 V -16.839 H 0 Z" /></g><g
       transform="translate(186.6865,30.6104)"
       id="g16"><path
         id="path18"
         style="fill:#6f8fa6;fill-opacity:1;fill-rule:nonzero;stroke:none"
         d="M 0,0 H 11.137 V -1.706 H 1.795 v -5.565 h 9.114 V -8.952 H 1.795 v -6.251 h 9.434 v -1.636 l -11.229,0 z" /></g><g
       transform="translate(206.8447,28.9043)"
       id="g20"><path
         id="path22"
         style="fill:#6f8fa6;fill-opacity:1;fill-rule:nonzero;stroke:none"
         d="M 0,0 H -6.318 V 1.709 H 8.114 V 0 H 1.796 V -15.136 H 0 Z" /></g><g
       transform="translate(217.1406,30.6104)"
       id="g24"><path
         id="path26"
         style="fill:#6f8fa6;fill-opacity:1;fill-rule:nonzero;stroke:none"
         d="M 0,0 H 1.839 L 6.268,-13.927 10.794,0 h 1.543 l 4.5,-13.927 L 21.292,0 H 23.02 L 17.609,-16.952 H 16.065 L 11.521,-2.934 6.997,-16.952 H 5.43 Z" /></g><g
       id="g28"><g
         clip-path="url(#clipPath34)"
         id="g30"><g
           transform="translate(256.9316,22.1797)"
           id="g36"><path
             id="path38"
             style="fill:#6f8fa6;fill-opacity:1;fill-rule:nonzero;stroke:none"
             d="m 0,0 c 0,4.545 -2.111,7 -6.705,7 -4.569,0 -6.659,-2.455 -6.659,-7 0,-4.566 2.09,-7.023 6.659,-7.023 C -2.111,-7.023 0,-4.566 0,0 m -15.16,0.021 c 0,6 3.069,8.683 8.455,8.683 5.41,0 8.498,-2.683 8.498,-8.683 0,-6.02 -3.088,-8.703 -8.498,-8.703 -5.386,0 -8.455,2.683 -8.455,8.703" /></g><g
           transform="translate(269.6797,22.2695)"
           id="g40"><path
             id="path42"
             style="fill:#6f8fa6;fill-opacity:1;fill-rule:nonzero;stroke:none"
             d="m 0,0 c 2.388,0 3.861,0.729 3.861,3.385 0,2.617 -1.427,3.296 -3.925,3.296 H -5.545 V 0 Z m -0.497,-1.636 h -5.048 v -6.865 h -1.75 V 8.338 h 7.274 c 3.909,0 5.683,-1.566 5.683,-4.907 0,-2.907 -1.39,-4.613 -4.321,-4.999 L 5.407,-8.501 H 3.499 Z" /></g><g
           transform="translate(284.2695,22.7021)"
           id="g44"><path
             id="path46"
             style="fill:#6f8fa6;fill-opacity:1;fill-rule:nonzero;stroke:none"
             d="M 0,0 -3.364,-3.68 V -8.934 H -5.113 V 7.905 h 1.749 V -1.388 L 5.158,7.905 H 7.227 L 1.184,1.295 8.046,-8.934 H 6.023 Z" /></g><g
           transform="translate(293.8164,15.4746)"
           id="g48"><path
             id="path50"
             style="fill:#6f8fa6;fill-opacity:1;fill-rule:nonzero;stroke:none"
             d="m 0,0 0.905,1.363 c 2.023,-1.271 4.002,-1.704 6.024,-1.704 3.477,0 5.024,0.977 5.024,3.296 0,2.385 -2.001,2.726 -5.024,3.272 -3.633,0.638 -6.091,1.252 -6.091,4.656 0,3.255 2.09,4.526 6.091,4.526 2.639,0 4.523,-0.59 5.862,-1.504 l -0.952,-1.452 c -1.205,0.795 -3.001,1.318 -4.91,1.318 -3.023,0 -4.315,-0.841 -4.315,-2.839 0,-2.137 1.746,-2.545 4.748,-3.091 3.682,-0.657 6.337,-1.203 6.337,-4.816 0,-3.341 -2.133,-4.953 -6.723,-4.953 C 4.431,-1.928 2.133,-1.408 0,0" /></g><g
           transform="translate(325.1221,100.21)"
           id="g52"><path
             id="path54"
             style="fill:#1d1d1b;fill-opacity:1;fill-rule:nonzero;stroke:none"
             d="m 0,0 c -23.674,0 -24.68,-10.607 -24.68,-25.572 v -36.736 h 5.584 v 36.736 c 0,11.28 -0.446,20.324 19.096,20.324 2.093,0 3.953,-0.111 5.624,-0.307 v 5.318 C 3.899,-0.084 2.039,0 0,0" /></g><g
           transform="translate(49.0054,61.7979)"
           id="g56"><path
             id="path58"
             style="fill:#1d1d1b;fill-opacity:1;fill-rule:nonzero;stroke:none"
             d="M 0,0 V 37.185 H 5.695 V -0.111 c 0,-10.72 -0.111,-19.767 19.54,-19.767 19.541,0 19.097,9.047 19.097,20.327 v 36.736 h 5.583 V 0.449 c 0,-14.966 -1.007,-25.575 -24.68,-25.575 C 1.451,-25.126 0,-14.517 0,0" /></g><g
           transform="translate(158.2808,75.0869)"
           id="g60"><path
             id="path62"
             style="fill:#1d1d1b;fill-opacity:1;fill-rule:nonzero;stroke:none"
             d="M 0,0 V -37.185 H -5.694 V 0.11 c 0,10.721 0.111,19.765 -19.541,19.765 -19.544,0 -19.096,-9.044 -19.096,-20.324 v -36.736 h -5.581 v 36.736 c 0,14.965 1.004,25.572 24.677,25.572 C -1.451,25.123 0,14.516 0,0" /></g><path
           id="path64"
           style="fill:#1d1d1b;fill-opacity:1;fill-rule:nonzero;stroke:none"
           d="m 168.642,98.869 h 5.467 V 37.903 h -5.467 z" /><g
           transform="translate(212.9687,64.5679)"
           id="g66"><path
             id="path68"
             style="fill:#1d1d1b;fill-opacity:1;fill-rule:nonzero;stroke:none"
             d="m 0,0 c 9.86,0 14.763,4.806 14.763,14.516 0,9.704 -5.286,14.314 -15.006,14.314 H -23.157 V 0 Z m -28.624,34.301 h 28.541 c 14.153,0 20.572,-7.035 20.572,-19.542 0,-12.588 -6.335,-20.241 -20.648,-20.241 h -22.998 v -21.184 h -5.467 z" /></g><g
           transform="translate(245.4053,72.7427)"
           id="g70"><path
             id="path72"
             style="fill:#1d1d1b;fill-opacity:1;fill-rule:nonzero;stroke:none"
             d="M 0,0 H 41.538 C 40.98,12.169 40.199,22.554 22.441,22.554 5.359,22.554 0.671,13.286 0,0 m -5.586,-4.134 c 0,17.977 5.141,31.825 28.147,31.825 23.782,0 24.56,-15.966 24.452,-32.828 H -0.11 C 0,-19.991 3.683,-31.044 23.001,-31.044 c 10.277,0 14.965,2.793 19.989,6.475 l 3.125,-4.132 c -5.583,-4.131 -12.17,-7.37 -23.114,-7.37 -24.117,0 -28.587,13.959 -28.587,31.937" /></g><g
           transform="translate(14.7197,24.6699)"
           id="g74"><path
             id="path76"
             style="fill:#1d1d1b;fill-opacity:1;fill-rule:nonzero;stroke:none"
             d="M 0,0 C 23.671,0 24.678,10.609 24.678,25.572 V 74.311 H 19.095 V 25.572 C 19.095,14.298 19.54,5.248 0,5.248 c -0.74,0 -1.44,0.02 -2.124,0.046 V 0.03 C -1.437,0.011 -0.731,0 0,0" /></g><g
           transform="translate(318.25,44.8457)"
           id="g78"><path
             id="path80"
             style="fill:#1d1d1b;fill-opacity:1;fill-rule:nonzero;stroke:none"
             d="m 0,0 c -1.853,0 -3.358,-1.504 -3.358,-3.353 0,-1.849 1.505,-3.358 3.358,-3.358 1.847,0 3.353,1.509 3.353,3.358 C 3.353,-1.504 1.847,0 0,0 m 0,-7.208 c -2.126,0 -3.856,1.728 -3.856,3.855 0,2.123 1.73,3.853 3.856,3.853 2.125,0 3.85,-1.73 3.85,-3.853 C 3.85,-5.48 2.125,-7.208 0,-7.208" /></g><g
           transform="translate(318.6357,41.5303)"
           id="g82"><path
             id="path84"
             style="fill:#1d1d1b;fill-opacity:1;fill-rule:nonzero;stroke:none"
             d="m 0,0 c 0.604,0 0.952,0.176 0.952,0.822 0,0.641 -0.338,0.787 -0.971,0.787 h -1.354 l 0,-1.609 z m -0.138,-0.551 h -1.235 v -1.704 h -0.59 v 4.427 h 1.972 c 1.119,0 1.552,-0.46 1.552,-1.333 0,-0.714 -0.303,-1.209 -1.069,-1.35 L 1.49,-2.255 H 0.853 Z" /></g></g></g></g></svg>