<?xml version="1.0" encoding="UTF-8" standalone="no"?>
<svg
        xmlns:dc="http://purl.org/dc/elements/1.1/"
        xmlns:cc="http://creativecommons.org/ns#"
        xmlns:rdf="http://www.w3.org/1999/02/22-rdf-syntax-ns#"
        xmlns:svg="http://www.w3.org/2000/svg"
        xmlns="http://www.w3.org/2000/svg"
        viewBox="0 0 554.47198 152.84534"
        height="152.84534"
        width="554.47198"
        xml:space="preserve"
        id="svg2"
        version="1.1"><metadata
     id="metadata8"><rdf:RDF><cc:Work
         rdf:about=""><dc:format>image/svg+xml</dc:format><dc:type
        rdf:resource="http://purl.org/dc/dcmitype/StillImage"/></cc:Work></rdf:RDF></metadata>
    <defs
            id="defs6"><clipPath
       id="clipPath18"
       clipPathUnits="userSpaceOnUse"><path
         id="path16"
         d="M 0,114.634 H 415.854 V 0 H 0 Z" /></clipPath>
        <clipPath
                id="clipPath58"
                clipPathUnits="userSpaceOnUse"><path
         id="path56"
         d="m 10.365,11.984 h 396.343 v 90.814 H 10.365 Z" /></clipPath>
        <clipPath
                id="clipPath74"
                clipPathUnits="userSpaceOnUse"><path
         id="path72"
         d="M 0,114.634 H 415.854 V 0 H 0 Z" /></clipPath></defs>
    <g
            transform="matrix(1.3333333,0,0,-1.3333333,0,152.84533)"
            id="g10"><g
       id="g12"><g
         clip-path="url(#clipPath18)"
         id="g14"><g
           transform="translate(87.3306,69.2456)"
           id="g20"><path
             id="path22"
             style="fill:#006699;fill-opacity:1;fill-rule:nonzero;stroke:none"
             d="m 0,0 -2.829,-16.245 c -0.351,-2.022 -2.282,-3.666 -4.303,-3.666 -2.025,0 -3.379,1.644 -3.027,3.666 L -7.33,0 c 0.35,2.026 2.277,3.666 4.302,3.666 C -1.004,3.666 0.353,2.026 0,0 m -11.156,7.472 -5.425,-31.124 c -0.351,-2.018 -2.276,-3.658 -4.301,-3.658 -2.025,0 -3.377,1.64 -3.028,3.658 l 5.42,31.124 c 0.349,2.022 2.281,3.661 4.302,3.661 2.028,0 3.38,-1.639 3.032,-3.661 m -13.147,-3.977 -7.308,-41.943 c -0.353,-2.025 -2.277,-3.661 -4.302,-3.661 -2.024,0 -3.377,1.636 -3.026,3.661 l 7.305,41.943 c 0.357,2.019 2.28,3.658 4.305,3.658 2.02,0 3.381,-1.639 3.026,-3.658 m -15.036,-14.807 -5.425,-31.116 c -0.351,-2.023 -2.278,-3.661 -4.303,-3.661 -2.024,0 -3.379,1.638 -3.022,3.661 l 5.417,31.116 c 0.353,2.026 2.28,3.669 4.301,3.669 2.028,0 3.381,-1.643 3.032,-3.669 m -13.752,-7.403 -2.829,-16.242 c -0.354,-2.022 -2.277,-3.665 -4.301,-3.665 -2.025,0 -3.381,1.643 -3.028,3.665 l 2.829,16.242 c 0.355,2.022 2.276,3.666 4.301,3.666 2.024,0 3.381,-1.644 3.028,-3.666 m -12.454,0 -0.808,-4.645 c -0.353,-2.022 -2.281,-3.662 -4.305,-3.662 -2.025,0 -3.377,1.64 -3.025,3.662 l 0.809,4.645 c 0.351,2.022 2.276,3.666 4.301,3.666 2.024,0 3.377,-1.644 3.028,-3.666 M 3.1,-11.441 c 0.345,1.973 2.188,3.578 4.157,3.658 v 28.191 c 0,7.259 -5.887,13.144 -13.149,13.144 h -57.924 c -7.262,0 -13.149,-5.885 -13.149,-13.144 v -57.926 c 0,-7.263 5.887,-13.151 13.149,-13.151 h 57.924 c 7.262,0 13.149,5.888 13.149,13.151 v 18.264 c -0.598,-0.315 -1.262,-0.5 -1.935,-0.5 -2.025,0 -3.38,1.642 -3.03,3.665 z" /></g><g
            transform="translate(73.144,80.3789)"
            id="g24"><path
             id="path26"
             style="fill:#aec000;fill-opacity:1;fill-rule:nonzero;stroke:none"
             d="m 0,0 c -2.021,0 -3.952,-1.639 -4.301,-3.662 l -5.421,-31.123 c -0.349,-2.019 1.002,-3.658 3.026,-3.658 2.025,0 3.949,1.639 4.303,3.658 L 3.026,-3.662 C 3.381,-1.639 2.024,0 0,0" /></g><g
            transform="translate(272.7573,12.3867)"
            id="g28"><path
             id="path30"
             style="fill:#006699;fill-opacity:1;fill-rule:nonzero;stroke:none"
             d="m 0,0 2.564,-0.004 c 0,0 0.008,9.54 0.008,10.701 0.737,-0.907 8.645,-10.701 8.645,-10.701 l 2.769,-0.004 0.004,14.462 h -2.568 c 0,0 -0.004,-9.54 -0.004,-10.701 C 10.686,4.664 2.777,14.458 2.777,14.458 H 0 Z" /></g><g
            transform="translate(290.1963,12.3789)"
            id="g32"><path
             id="path34"
             style="fill:#006699;fill-opacity:1;fill-rule:nonzero;stroke:none"
             d="m 0,0 11.916,-0.004 v 2.296 c 0,0 -8.871,0.004 -9.342,0.004 v 4.018 h 8.879 v 2.292 c 0,0 -8.408,0.004 -8.879,0.004 v 3.552 c 0.471,0 9.153,-0.004 9.153,-0.004 v 2.3 L 0.004,14.462 Z" /></g><g
            transform="translate(304.458,24.5371)"
            id="g36"><path
             id="path38"
             style="fill:#006699;fill-opacity:1;fill-rule:nonzero;stroke:none"
             d="m 0,0 c 0,0 4.826,-0.004 5.277,-0.004 0,-0.474 -0.007,-12.161 -0.007,-12.161 h 2.572 c 0,0 0.004,11.684 0.004,12.161 h 5.283 V 2.292 L 0,2.296 Z" /></g><g
            transform="translate(324.4053,12.3682)"
            id="g40"><path
             id="path42"
             style="fill:#006699;fill-opacity:1;fill-rule:nonzero;stroke:none"
             d="m 0,0 h 2.645 c 0,0 3.312,9.938 3.701,11.092 0.383,-1.154 3.707,-11.096 3.707,-11.096 h 2.625 l 4.902,14.453 -2.678,0.004 c 0,0 -3.037,-9.661 -3.408,-10.849 C 11.1,4.781 7.836,14.453 7.836,14.453 l -2.822,0.004 c 0,0 -3.18,-9.649 -3.575,-10.841 -0.38,1.196 -3.416,10.841 -3.416,10.841 l -2.777,0.004 z" /></g><g
            transform="translate(346.7295,15.7793)"
            id="g44"><path
             id="path46"
             style="fill:#006699;fill-opacity:1;fill-rule:nonzero;stroke:none"
             d="M 0,0 C -0.93,0.93 -1.4,2.208 -1.4,3.806 V 3.81 c 0,1.601 0.47,2.879 1.4,3.806 0.963,0.967 2.363,1.476 4.037,1.476 H 4.045 C 7.4,9.092 9.482,7.065 9.482,3.806 9.482,0.546 7.396,-1.479 4.037,-1.477 2.359,-1.477 0.963,-0.968 0,0 m 4.045,11.392 c -2.508,0 -4.5,-0.721 -5.924,-2.145 -1.346,-1.347 -2.09,-3.278 -2.09,-5.434 0,-2.163 0.737,-4.094 2.086,-5.441 1.42,-1.423 3.412,-2.144 5.92,-2.144 5.916,-0.003 8.014,4.08 8.014,7.578 0.004,3.495 -2.094,7.582 -8.006,7.586" /></g><g
            transform="translate(364.2236,24.5146)"
            id="g48"><path
             id="path50"
             style="fill:#006699;fill-opacity:1;fill-rule:nonzero;stroke:none"
             d="m 0,0 h 5.592 c 1.431,-0.004 2.217,-0.706 2.217,-1.98 0,-0.737 -0.297,-1.963 -2.274,-1.963 0,0 -5.08,0.004 -5.543,0.004 C -0.008,-3.525 0,-0.414 0,0 m -2.578,-12.162 h 2.57 v 5.928 c 0.455,0 5.168,-0.004 5.168,-0.004 1.449,0 2.315,-0.497 2.451,-3.033 l 0.026,-0.451 c 0.08,-1.408 0.111,-1.939 0.461,-2.352 l 0.074,-0.092 h 2.848 l -0.35,0.414 c -0.426,0.493 -0.494,1.131 -0.604,3.639 -0.072,1.549 -0.716,2.603 -1.711,3.012 1.272,0.623 2.026,1.819 2.026,3.431 0,1.825 -1.067,3.962 -4.061,3.962 l -8.894,0.004 z" /></g></g></g>
        <g
                id="g52"><g
         clip-path="url(#clipPath58)"
         id="g54"><g
           transform="translate(378.2666,12.3486)"
           id="g60"><path
             id="path62"
             style="fill:#006699;fill-opacity:1;fill-rule:nonzero;stroke:none"
             d="m 0,0 h 2.568 c 0,0 0.004,4.478 0.004,4.69 0.145,0.129 1.951,1.727 2.266,2.004 0.31,-0.364 5.617,-6.698 5.617,-6.698 h 3.514 c 0,0 -6.885,8.037 -7.188,8.398 0.35,0.303 6.944,6.06 6.944,6.06 h -3.692 c 0,0 -6.713,-6.037 -7.461,-6.705 0,0.944 0.004,6.709 0.004,6.709 H 0.004 Z" /></g><g
                transform="translate(394.2275,22.6631)"
                id="g64"><path
             id="path66"
             style="fill:#006699;fill-opacity:1;fill-rule:nonzero;stroke:none"
             d="m 0,0 c 0,-3.188 3.273,-3.73 4.352,-3.905 l 3.164,-0.532 c 1.701,-0.288 2.394,-0.819 2.394,-1.825 0,-0.47 -0.166,-0.877 -0.496,-1.207 -0.592,-0.584 -1.67,-0.91 -3.031,-0.91 -1.569,0 -4.209,0.379 -4.248,2.906 l -0.002,0.244 h -2.567 v -0.248 c 0,-1.433 0.442,-2.598 1.303,-3.467 1.43,-1.431 3.703,-1.731 5.358,-1.731 1.263,0 3.597,0.213 5.039,1.651 0.804,0.804 1.214,1.871 1.214,3.169 0,3.039 -3.294,3.63 -4.375,3.821 -0.035,0.008 -3.457,0.596 -3.457,0.596 -1.863,0.318 -2.08,1.058 -2.08,1.589 0,0.479 0.166,0.888 0.495,1.214 C 3.578,1.882 4.52,2.193 5.566,2.193 8.715,2.189 9.301,0.838 9.467,-0.183 l 0.031,-0.209 2.549,-0.003 -0.016,0.266 C 11.865,2.804 9.607,4.484 5.844,4.488 2.234,4.488 0,2.77 0,0" /></g></g></g>
        <g
                id="g68"><g
         clip-path="url(#clipPath74)"
         id="g70"><g
           transform="translate(138.48,44.501)"
           id="g76"><path
             id="path78"
             style="fill:#006699;fill-opacity:1;fill-rule:nonzero;stroke:none"
             d="m 0,0 c -8.223,0 -9.473,7.058 -9.473,15.103 0,8.044 1.25,15.015 9.473,15.015 8.221,0 9.382,-6.971 9.382,-15.015 C 9.382,7.058 8.221,0 0,0 m 13.405,34.228 c -2.503,2.507 -6.523,4.025 -11.083,4.025 -4.914,0 -8.579,-1.255 -11.975,-5.365 v 2.672 c -1.042,1.354 -2.657,2.231 -4.492,2.231 -1.838,0 -3.411,-0.873 -4.445,-2.235 v -61.474 h 9.117 v 22.966 c 3.305,-3.932 7.06,-5.184 11.885,-5.184 4.559,0 8.49,1.522 10.993,4.023 4.557,4.556 5.094,12.332 5.094,19.216 0,6.879 -0.537,14.567 -5.094,19.125" /></g><g
                transform="translate(190.1572,56.9243)"
                id="g80"><path
             id="path82"
             style="fill:#006699;fill-opacity:1;fill-rule:nonzero;stroke:none"
             d="m 0,0 h -10.636 c -5.362,0 -8.132,-2.414 -8.132,-6.527 0,-4.109 2.592,-6.431 8.312,-6.431 3.485,0 6.077,0.265 8.489,2.591 C -0.626,-9.027 0,-6.883 0,-3.666 Z m 0.178,-20.02 v 4.109 c -3.306,-3.305 -6.435,-4.644 -12.065,-4.644 -5.631,0 -9.384,1.339 -12.154,4.109 -2.324,2.413 -3.578,5.897 -3.578,9.741 0,7.597 5.276,13.05 15.643,13.05 L 0,6.345 v 3.218 c 0,5.718 -2.861,8.488 -9.921,8.488 -5.005,0 -7.416,-1.161 -9.919,-4.379 l -5.992,5.631 c 4.293,5.006 8.762,6.523 16.269,6.523 12.422,0 18.678,-5.27 18.678,-15.55 V -20.02 Z" /></g><g
                transform="translate(222.2808,44.6787)"
                id="g84"><path
             id="path86"
             style="fill:#006699;fill-opacity:1;fill-rule:nonzero;stroke:none"
             d="M 0,0 C -3.666,0 -4.918,1.788 -4.918,5.275 V 55.85 c -1.059,1.374 -2.705,2.273 -4.574,2.273 -1.879,0 -3.487,-0.888 -4.541,-2.277 V 4.736 c 0,-6.701 3.756,-12.51 12.424,-12.51 h 5.631 l 0,7.774 z" /></g><g
                transform="translate(255.0513,72.0269)"
                id="g88"><path
             id="path90"
             style="fill:#006699;fill-opacity:1;fill-rule:nonzero;stroke:none"
             d="M 0,0 C -1.696,1.7 -4.022,2.592 -6.701,2.592 -9.38,2.592 -11.619,1.7 -13.315,0 c -2.771,-2.77 -3.127,-7.505 -3.127,-12.423 0,-4.914 0.356,-9.65 3.127,-12.42 1.696,-1.7 3.935,-2.683 6.614,-2.683 2.679,0 5.005,0.983 6.701,2.683 2.771,2.77 3.127,7.506 3.127,12.42 C 3.127,-7.505 2.771,-2.77 0,0 m 6.884,-30.296 c -2.953,-3.039 -7.419,-5.362 -13.585,-5.362 -6.167,0 -10.546,2.323 -13.494,5.362 -4.292,4.466 -5.366,10.188 -5.366,17.873 0,7.596 1.074,13.319 5.366,17.785 2.948,3.039 7.327,5.362 13.494,5.362 6.166,0 10.632,-2.323 13.585,-5.362 4.287,-4.466 5.361,-10.189 5.361,-17.785 0,-7.685 -1.074,-13.407 -5.361,-17.873" /></g><g
                transform="translate(333.835,44.6787)"
                id="g92"><path
             id="path94"
             style="fill:#aec000;fill-opacity:1;fill-rule:nonzero;stroke:none"
             d="M 0,0 C -3.666,0 -4.918,1.788 -4.918,5.275 L -4.922,55.85 c -1.058,1.374 -2.705,2.273 -4.572,2.273 -1.879,0 -3.486,-0.888 -4.539,-2.277 V 4.736 c 0,-6.701 3.754,-12.51 12.424,-12.51 H 4.02 V 0 Z" /></g><g
                transform="translate(300.4736,56.9243)"
                id="g96"><path
             id="path98"
             style="fill:#aec000;fill-opacity:1;fill-rule:nonzero;stroke:none"
             d="m 0,0 h -10.633 c -5.366,0 -8.136,-2.414 -8.136,-6.527 0,-4.109 2.596,-6.431 8.31,-6.431 3.488,0 6.08,0.265 8.492,2.591 C -0.623,-9.027 0,-6.883 0,-3.666 Z m 0.182,-20.02 v 4.109 c -3.309,-3.305 -6.436,-4.644 -12.067,-4.644 -5.632,0 -9.385,1.339 -12.155,4.109 -2.326,2.413 -3.578,5.897 -3.578,9.741 0,7.597 5.275,13.05 15.641,13.05 L 0,6.345 v 3.218 c 0,5.718 -2.861,8.488 -9.92,8.488 -5.005,0 -7.418,-1.161 -9.919,-4.379 l -5.988,5.631 c 4.288,5.006 8.758,6.523 16.264,6.523 12.424,0 18.676,-5.27 18.676,-15.55 V -20.02 Z" /></g><g
                transform="translate(363.1826,74.4404)"
                id="g100"><path
             id="path102"
             style="fill:#aec000;fill-opacity:1;fill-rule:nonzero;stroke:none"
             d="m 0,0 v 6.971 h -8.758 v 13.725 c -1.062,1.377 -2.709,2.273 -4.576,2.273 -1.879,0 -3.486,-0.892 -4.539,-2.277 V 6.971 h -5.184 V 0 h 5.184 v -24.935 c 0,-6.522 3.932,-12.601 12.42,-12.601 H 0 v 7.774 h -3.756 c -3.392,0 -5.002,1.966 -5.002,5.276 l 0,24.486 z" /></g><g
                transform="translate(394.2002,72.0269)"
                id="g104"><path
             id="path106"
             style="fill:#aec000;fill-opacity:1;fill-rule:nonzero;stroke:none"
             d="m 0,0 c -1.699,1.7 -4.021,2.592 -6.705,2.592 -2.684,0 -4.914,-0.892 -6.613,-2.592 -2.772,-2.77 -3.127,-7.505 -3.127,-12.423 0,-4.914 0.355,-9.65 3.127,-12.42 1.699,-1.7 3.929,-2.683 6.613,-2.683 2.684,0 5.006,0.983 6.705,2.683 2.77,2.77 3.127,7.506 3.127,12.42 C 3.127,-7.505 2.77,-2.77 0,0 m 6.879,-30.296 c -2.947,-3.039 -7.418,-5.362 -13.584,-5.362 -6.166,0 -10.545,2.323 -13.494,5.362 -4.291,4.466 -5.362,10.188 -5.362,17.873 0,7.596 1.071,13.319 5.362,17.785 2.949,3.039 7.328,5.362 13.494,5.362 6.166,0 10.637,-2.323 13.584,-5.362 4.293,-4.466 5.363,-10.189 5.363,-17.785 0,-7.685 -1.07,-13.407 -5.363,-17.873" /></g></g></g></g></svg>