<svg class="thumb" width="1000" height="1000" viewBox="0,0,600,600" xmlns="http://www.w3.org/2000/svg">
    <defs/>
    <g transform="matrix(0.9312,0,0,0.9312,-67.7585,109.512)">
        <g transform="matrix(3.6289,0,0,3.6289,195.0684,0.4315)">
            <svg width="109.999" height="67.98799999999999"
                 viewBox="-4.624,14.508999999999997,109.999,67.98799999999999">
                <defs>
                    <linearGradient x1="0" y1="0.5" x2="1" y2="0.5" id="lgNetwork">
                        <stop offset="0%" stop-color="#ffc04a"/>
                        <stop offset="100%" stop-color="#ff6347"/>
                    </linearGradient>
                </defs>
                <g/>
                <g/>
                <g>
                    <path fill="url('#lgNetwork')"
                          d="M96.897,37.513c1.921,0,3.478-1.558,3.478-3.479c0-1.92-1.557-3.478-3.478-3.478s-3.478,1.558-3.478,3.478  c0,0.422,0.079,0.825,0.217,1.2l-10.153,8.649l-12.864-7.567c0.073-0.297,0.116-0.607,0.116-0.927c0-2.142-1.736-3.878-3.878-3.878  c-0.869,0-1.668,0.289-2.314,0.772L52.92,23.054c0.054-0.22,0.086-0.448,0.086-0.684c0-1.581-1.281-2.861-2.861-2.861  s-2.861,1.281-2.861,2.861c0,0.729,0.275,1.393,0.724,1.898l-5.835,12.488c-0.26-0.045-0.526-0.074-0.8-0.074  c-0.86,0-1.662,0.239-2.351,0.647l-15.438-6.915c0.036-0.225,0.06-0.454,0.06-0.689c0-2.38-1.929-4.309-4.309-4.309  c-2.379,0-4.309,1.929-4.309,4.309s1.929,4.309,4.309,4.309c1.352,0,2.556-0.623,3.346-1.596l14.682,6.576  c-0.384,0.674-0.607,1.452-0.607,2.284c0,0.852,0.293,1.605,0.694,2.29l-8.233,8.237c-1.136-0.811-2.506-1.294-4.003-1.294  c-2.642,0-4.915,1.501-6.082,3.684l-0.096-0.032c-0.001,0.012-0.004,0.023-0.005,0.035L7.553,49.002  c0.016-0.134,0.025-0.271,0.025-0.409c0-1.989-1.612-3.601-3.601-3.601s-3.601,1.612-3.601,3.601s1.612,3.601,3.601,3.601  c1.054,0,1.999-0.455,2.657-1.177l11.723,5.329c-0.005,0.013-0.009,0.025-0.015,0.037l0.056,0.019  c-0.054,0.348-0.108,0.694-0.108,1.055c0,1.954,0.813,3.716,2.115,4.975l-0.017,0.013c0.004,0.005,0.008,0.01,0.012,0.014  l-5.973,8.802c-0.155-0.027-0.314-0.044-0.478-0.044c-1.479,0-2.678,1.198-2.678,2.678c0,1.479,1.199,2.678,2.678,2.678  c1.479,0,2.678-1.199,2.678-2.678c0-0.501-0.14-0.969-0.38-1.37l5.364-7.904l0.71-0.877c0.881,0.407,1.859,0.641,2.894,0.641  c1.902,0,3.629-0.771,4.883-2.016l6.993,4.991c-0.199,0.514-0.334,1.06-0.334,1.641c0,2.548,2.065,4.617,4.617,4.617  c2.159,0,3.965-1.483,4.471-3.482l15.916-4.923c0.977,1.815,2.893,3.05,5.099,3.05c1.273,0,2.447-0.417,3.403-1.114l7.12,6.611  c-0.038,0.193-0.059,0.393-0.059,0.597c0,1.734,1.406,3.14,3.14,3.14s3.139-1.405,3.139-3.14c0-1.733-1.405-3.139-3.139-3.139  c-0.707,0-1.358,0.236-1.883,0.631l-6.811-6.323c0.552-0.887,0.893-1.93,0.893-3.05c0-2.815-1.661-5.16-4.661-5.677V39.104  c1-0.172,1.082-0.478,1.513-0.878l13.332,7.848l11.179,15.655c-0.092,0.23-0.146,0.481-0.146,0.745c0,1.125,0.91,2.037,2.035,2.037  s2.037-0.912,2.037-2.037s-0.913-2.037-2.038-2.037c-0.03,0-0.06,0.003-0.09,0.005L85.094,45.422l9.931-8.459  C95.565,37.31,96.207,37.513,96.897,37.513z M61.07,62.474c0,0.21,0.013,0.416,0.035,0.62l-15.275,4.724  c-0.522-1.975-2.316-3.435-4.458-3.435c-1.123,0-2.114,0.451-2.913,1.113l-7.038-5.022c0.447-0.92,0.717-1.93,0.717-3.017  c0-1.492-0.487-2.871-1.29-3.999l8.233-8.237c0.686,0.401,1.438,0.694,2.291,0.694c1.642,0,3.079-0.857,3.897-2.147l17.222,14.914  C61.609,59.699,61.07,61.022,61.07,62.474z M66,56.797c-1,0.1-1.135,0.273-1.596,0.502l-18.36-15.846  c0.002-0.052-0.023-0.102-0.023-0.154c0-1.485-0.718-2.802-1.806-3.646l5.799-12.428c0.046,0.002,0.088,0.007,0.134,0.007  c0.53,0,1.023-0.147,1.449-0.399l11.621,9.229c-0.151,0.415-0.113,0.861-0.113,1.328c0,1.757,0.895,3.238,2.895,3.715V56.797z"
                          style="" stroke="none"/>
                </g>
            </svg>
        </g>
        <g transform="matrix(1.0872,0,0,1.0872,197.1917,227.8094)">
            <svg width="361.20000000000005" height="181" style="overflow: visible;">
                <defs>
                    <linearGradient x1="0" y1="0.5" x2="1" y2="0.5" id="lgHatton">
                        <stop offset="0%" stop-color="#fff"/>
                        <stop offset="100%" stop-color="#fff"/>
                    </linearGradient>
                </defs>
                <g transform="matrix(1,0,0,1,0,90.75)">
                    <path d="M 56.3-70L 72.5-70L 72.5 0L 56.3 0L 56.3-28.7L 24.5-28.7L 24.5 0L 8.3 0L 8.3-70L 24.5-70L 24.5-42.4L 56.3-42.4L 56.3-70ZM 109.70000000000002-54.6Q 122.20000000000002-54.6  128.9-48.65Q 135.60000000000002-42.7  135.60000000000002-30.7L 135.60000000000002-30.7L 135.60000000000002 0L 121.00000000000001 0L 121.00000000000001-6.7Q 116.60000000000001 0.8  104.60000000000001 0.8L 104.60000000000001 0.8Q 98.4 0.8  93.85000000000001-1.3Q 89.30000000000001-3.4  86.9-7.1Q 84.50000000000001-10.8  84.50000000000001-15.5L 84.50000000000001-15.5Q 84.50000000000001-23  90.15-27.3Q 95.80000000000001-31.6  107.60000000000001-31.6L 107.60000000000001-31.6L 120.00000000000001-31.6Q 120.00000000000001-36.7  116.9-39.45Q 113.80000000000001-42.2  107.60000000000001-42.2L 107.60000000000001-42.2Q 103.30000000000001-42.2  99.15-40.85Q 95.00000000000001-39.5  92.10000000000001-37.2L 92.10000000000001-37.2L 86.50000000000001-48.1Q 90.9-51.2  97.05000000000001-52.9Q 103.20000000000002-54.6  109.70000000000002-54.6L 109.70000000000002-54.6ZM 108.50000000000001-9.7Q 112.50000000000001-9.7  115.60000000000001-11.55Q 118.70000000000002-13.4  120.00000000000001-17L 120.00000000000001-17L 120.00000000000001-22.5L 109.30000000000001-22.5Q 99.70000000000002-22.5  99.70000000000002-16.2L 99.70000000000002-16.2Q 99.70000000000002-13.2  102.05000000000001-11.45Q 104.4-9.7  108.50000000000001-9.7L 108.50000000000001-9.7ZM 180.20000000000005-13.6L 184.40000000000003-2.6Q 182.10000000000002-0.9  178.75000000000003-0.05Q 175.40000000000003 0.8  171.70000000000002 0.8L 171.70000000000002 0.8Q 162.10000000000002 0.8  156.85000000000002-4.1Q 151.60000000000002-9  151.60000000000002-18.5L 151.60000000000002-18.5L 151.60000000000002-40.6L 143.30000000000004-40.6L 143.30000000000004-52.6L 151.60000000000002-52.6L 151.60000000000002-65.7L 167.20000000000002-65.7L 167.20000000000002-52.6L 180.60000000000002-52.6L 180.60000000000002-40.6L 167.20000000000002-40.6L 167.20000000000002-18.7Q 167.20000000000002-15.3  168.95000000000002-13.45Q 170.70000000000002-11.6  173.90000000000003-11.6L 173.90000000000003-11.6Q 177.60000000000002-11.6  180.20000000000005-13.6L 180.20000000000005-13.6ZM 222.5-13.6L 226.70000000000002-2.6Q 224.4-0.9  221.05-0.05Q 217.70000000000002 0.8  214 0.8L 214 0.8Q 204.4 0.8  199.15-4.1Q 193.9-9  193.9-18.5L 193.9-18.5L 193.9-40.6L 185.60000000000002-40.6L 185.60000000000002-52.6L 193.9-52.6L 193.9-65.7L 209.5-65.7L 209.5-52.6L 222.9-52.6L 222.9-40.6L 209.5-40.6L 209.5-18.7Q 209.5-15.3  211.25-13.45Q 213-11.6  216.20000000000002-11.6L 216.20000000000002-11.6Q 219.9-11.6  222.5-13.6L 222.5-13.6ZM 259.40000000000003 0.8Q 250.90000000000003 0.8  244.15000000000003-2.75Q 237.40000000000003-6.3  233.60000000000002-12.6Q 229.8-18.9  229.8-26.9L 229.8-26.9Q 229.8-34.9  233.60000000000002-41.2Q 237.40000000000003-47.5  244.15000000000003-51.05Q 250.90000000000003-54.6  259.40000000000003-54.6L 259.40000000000003-54.6Q 267.90000000000003-54.6  274.6-51.05Q 281.3-47.5  285.1-41.2Q 288.90000000000003-34.9  288.90000000000003-26.9L 288.90000000000003-26.9Q 288.90000000000003-18.9  285.1-12.6Q 281.3-6.3  274.6-2.75Q 267.90000000000003 0.8  259.40000000000003 0.8L 259.40000000000003 0.8ZM 259.40000000000003-12Q 265.40000000000003-12  269.25-16.05Q 273.1-20.1  273.1-26.9L 273.1-26.9Q 273.1-33.7  269.25-37.75Q 265.40000000000003-41.8  259.40000000000003-41.8L 259.40000000000003-41.8Q 253.40000000000003-41.8  249.50000000000003-37.75Q 245.60000000000002-33.7  245.60000000000002-26.9L 245.60000000000002-26.9Q 245.60000000000002-20.1  249.50000000000003-16.05Q 253.40000000000003-12  259.40000000000003-12L 259.40000000000003-12ZM 332-54.6Q 342-54.6  348.15000000000003-48.6Q 354.3-42.6  354.3-30.8L 354.3-30.8L 354.3 0L 338.70000000000005 0L 338.70000000000005-28.4Q 338.70000000000005-34.8  335.90000000000003-37.95Q 333.1-41.1  327.8-41.1L 327.8-41.1Q 321.90000000000003-41.1  318.40000000000003-37.45Q 314.90000000000003-33.8  314.90000000000003-26.6L 314.90000000000003-26.6L 314.90000000000003 0L 299.3 0L 299.3-53.8L 314.20000000000005-53.8L 314.20000000000005-47.5Q 317.3-50.9  321.90000000000003-52.75Q 326.5-54.6  332-54.6L 332-54.6Z"
                          fill="url('#lgHatton')"/>
                </g>
            </svg>
        </g>
        <g transform="matrix(0.5839,0,0,0.5839,98.3209,326.2166)">
            <svg width="1007.7" height="181" style="overflow: visible;">
                <defs>
                    <linearGradient x1="0" y1="0.5" x2="1" y2="0.5" id="lgEnterpriseSolutions">
                        <stop offset="0%" stop-color="#ffc04a"/>
                        <stop offset="100%" stop-color="#ffc04a"/>
                    </linearGradient>
                </defs>
                <g transform="matrix(1,0,0,1,0,90.75)">
                    <path d="M 18.8-6.4L 60.9-6.4L 60.9 0L 11.4 0L 11.4-70L 59.4-70L 59.4-63.6L 18.8-63.6L 18.8-38.7L 55-38.7L 55-32.4L 18.8-32.4L 18.8-6.4ZM 103.59999999999998-53Q 113.49999999999997-53  119.34999999999998-47.25Q 125.19999999999997-41.5  125.19999999999997-30.5L 125.19999999999997-30.5L 125.19999999999997 0L 118.09999999999998 0L 118.09999999999998-29.8Q 118.09999999999998-38  113.99999999999997-42.3Q 109.89999999999998-46.6  102.29999999999998-46.6L 102.29999999999998-46.6Q 93.79999999999998-46.6  88.84999999999998-41.55Q 83.89999999999998-36.5  83.89999999999998-27.6L 83.89999999999998-27.6L 83.89999999999998 0L 76.79999999999998 0L 76.79999999999998-52.6L 83.59999999999998-52.6L 83.59999999999998-42.9Q 86.49999999999997-47.7  91.64999999999998-50.35Q 96.79999999999998-53  103.59999999999998-53L 103.59999999999998-53ZM 169.70000000000002-8.3L 172.20000000000002-3.2Q 170.20000000000002-1.4  167.25000000000003-0.45Q 164.3 0.5  161.10000000000002 0.5L 161.10000000000002 0.5Q 153.70000000000002 0.5  149.70000000000002-3.5Q 145.70000000000002-7.5  145.70000000000002-14.8L 145.70000000000002-14.8L 145.70000000000002-46.6L 136.3-46.6L 136.3-52.6L 145.70000000000002-52.6L 145.70000000000002-64.1L 152.8-64.1L 152.8-52.6L 168.8-52.6L 168.8-46.6L 152.8-46.6L 152.8-15.2Q 152.8-10.5  155.15000000000003-8.05Q 157.50000000000003-5.6  161.90000000000003-5.6L 161.90000000000003-5.6Q 164.10000000000002-5.6  166.15000000000003-6.3Q 168.20000000000002-7  169.70000000000002-8.3L 169.70000000000002-8.3ZM 229.10000000000002-26.3L 229-24.1L 185-24.1Q 185.60000000000002-15.9  191.3-10.85Q 197-5.8  205.70000000000002-5.8L 205.70000000000002-5.8Q 210.60000000000002-5.8  214.70000000000002-7.55Q 218.8-9.3  221.8-12.7L 221.8-12.7L 225.8-8.1Q 222.3-3.9  217.05-1.7Q 211.8 0.5  205.5 0.5L 205.5 0.5Q 197.4 0.5  191.15-2.95Q 184.9-6.4  181.4-12.5Q 177.9-18.6  177.9-26.3L 177.9-26.3Q 177.9-34  181.25-40.1Q 184.60000000000002-46.2  190.45000000000002-49.6Q 196.3-53  203.60000000000002-53L 203.60000000000002-53Q 210.9-53  216.70000000000002-49.6Q 222.5-46.2  225.8-40.15Q 229.10000000000002-34.1  229.10000000000002-26.3L 229.10000000000002-26.3ZM 203.60000000000002-46.9Q 196-46.9  190.85000000000002-42.05Q 185.70000000000002-37.2  185-29.4L 185-29.4L 222.3-29.4Q 221.60000000000002-37.2  216.45000000000002-42.05Q 211.3-46.9  203.60000000000002-46.9L 203.60000000000002-46.9ZM 250.40000000000006-42.3Q 252.90000000000006-47.6  257.8500000000001-50.3Q 262.80000000000007-53  270.1000000000001-53L 270.1000000000001-53L 270.1000000000001-46.1L 268.4000000000001-46.2Q 260.1000000000001-46.2  255.40000000000006-41.1Q 250.70000000000007-36  250.70000000000007-26.8L 250.70000000000007-26.8L 250.70000000000007 0L 243.60000000000008 0L 243.60000000000008-52.6L 250.40000000000006-52.6L 250.40000000000006-42.3ZM 310.0000000000001-53Q 317.4000000000001-53  323.4000000000001-49.65Q 329.4000000000001-46.3  332.8000000000001-40.2Q 336.2000000000001-34.1  336.2000000000001-26.3L 336.2000000000001-26.3Q 336.2000000000001-18.4  332.8000000000001-12.3Q 329.4000000000001-6.2  323.4500000000001-2.85Q 317.5000000000001 0.5  310.0000000000001 0.5L 310.0000000000001 0.5Q 303.60000000000014 0.5  298.4500000000001-2.15Q 293.3000000000001-4.8  290.0000000000001-9.9L 290.0000000000001-9.9L 290.0000000000001 19.4L 282.9000000000001 19.4L 282.9000000000001-52.6L 289.7000000000001-52.6L 289.7000000000001-42.2Q 292.9000000000001-47.4  298.1500000000001-50.2Q 303.4000000000001-53  310.0000000000001-53L 310.0000000000001-53ZM 309.5000000000001-5.8Q 315.0000000000001-5.8  319.5000000000001-8.35Q 324.0000000000001-10.9  326.5500000000001-15.6Q 329.10000000000014-20.3  329.10000000000014-26.3L 329.10000000000014-26.3Q 329.10000000000014-32.3  326.5500000000001-36.95Q 324.0000000000001-41.6  319.5000000000001-44.2Q 315.0000000000001-46.8  309.5000000000001-46.8L 309.5000000000001-46.8Q 303.9000000000001-46.8  299.4500000000001-44.2Q 295.0000000000001-41.6  292.4500000000001-36.95Q 289.9000000000001-32.3  289.9000000000001-26.3L 289.9000000000001-26.3Q 289.9000000000001-20.3  292.4500000000001-15.6Q 295.0000000000001-10.9  299.4500000000001-8.35Q 303.9000000000001-5.8  309.5000000000001-5.8L 309.5000000000001-5.8ZM 357.50000000000017-42.3Q 360.00000000000017-47.6  364.95000000000016-50.3Q 369.9000000000002-53  377.20000000000016-53L 377.20000000000016-53L 377.20000000000016-46.1L 375.50000000000017-46.2Q 367.20000000000016-46.2  362.50000000000017-41.1Q 357.8000000000002-36  357.8000000000002-26.8L 357.8000000000002-26.8L 357.8000000000002 0L 350.70000000000016 0L 350.70000000000016-52.6L 357.50000000000017-52.6L 357.50000000000017-42.3ZM 390.00000000000017 0L 390.00000000000017-52.6L 397.1000000000002-52.6L 397.1000000000002 0L 390.00000000000017 0ZM 393.6000000000002-64.1Q 391.4000000000002-64.1  389.9000000000002-65.6Q 388.4000000000002-67.1  388.4000000000002-69.2L 388.4000000000002-69.2Q 388.4000000000002-71.2  389.9000000000002-72.7Q 391.4000000000002-74.2  393.6000000000002-74.2L 393.6000000000002-74.2Q 395.8000000000002-74.2  397.3000000000002-72.75Q 398.8000000000002-71.3  398.8000000000002-69.3L 398.8000000000002-69.3Q 398.8000000000002-67.1  397.3000000000002-65.6Q 395.8000000000002-64.1  393.6000000000002-64.1L 393.6000000000002-64.1ZM 431.00000000000017 0.5Q 424.6000000000002 0.5  418.75000000000017-1.35Q 412.90000000000015-3.2  409.6000000000002-6L 409.6000000000002-6L 412.8000000000002-11.6Q 416.1000000000002-9  421.1000000000002-7.35Q 426.1000000000002-5.7  431.50000000000017-5.7L 431.50000000000017-5.7Q 438.70000000000016-5.7  442.15000000000015-7.95Q 445.6000000000002-10.2  445.6000000000002-14.3L 445.6000000000002-14.3Q 445.6000000000002-17.2  443.70000000000016-18.85Q 441.8000000000002-20.5  438.90000000000015-21.35Q 436.00000000000017-22.2  431.20000000000016-23L 431.20000000000016-23Q 424.8000000000002-24.2  420.90000000000015-25.45Q 417.00000000000017-26.7  414.25000000000017-29.7Q 411.50000000000017-32.7  411.50000000000017-38L 411.50000000000017-38Q 411.50000000000017-44.6  417.00000000000017-48.8Q 422.50000000000017-53  432.3000000000002-53L 432.3000000000002-53Q 437.40000000000015-53  442.50000000000017-51.65Q 447.6000000000002-50.3  450.90000000000015-48.1L 450.90000000000015-48.1L 447.8000000000002-42.4Q 441.3000000000002-46.9  432.3000000000002-46.9L 432.3000000000002-46.9Q 425.50000000000017-46.9  422.0500000000002-44.5Q 418.6000000000002-42.1  418.6000000000002-38.2L 418.6000000000002-38.2Q 418.6000000000002-35.2  420.5500000000002-33.4Q 422.50000000000017-31.6  425.40000000000015-30.75Q 428.3000000000002-29.9  433.40000000000015-29L 433.40000000000015-29Q 439.70000000000016-27.8  443.50000000000017-26.6Q 447.3000000000002-25.4  450.00000000000017-22.5Q 452.70000000000016-19.6  452.70000000000016-14.5L 452.70000000000016-14.5Q 452.70000000000016-7.6  446.95000000000016-3.55Q 441.20000000000016 0.5  431.00000000000017 0.5L 431.00000000000017 0.5ZM 511.70000000000016-26.3L 511.60000000000014-24.1L 467.60000000000014-24.1Q 468.20000000000016-15.9  473.90000000000015-10.85Q 479.60000000000014-5.8  488.3000000000001-5.8L 488.3000000000001-5.8Q 493.20000000000016-5.8  497.3000000000001-7.55Q 501.40000000000015-9.3  504.40000000000015-12.7L 504.40000000000015-12.7L 508.40000000000015-8.1Q 504.90000000000015-3.9  499.65000000000015-1.7Q 494.40000000000015 0.5  488.10000000000014 0.5L 488.10000000000014 0.5Q 480.00000000000017 0.5  473.75000000000017-2.95Q 467.50000000000017-6.4  464.00000000000017-12.5Q 460.50000000000017-18.6  460.50000000000017-26.3L 460.50000000000017-26.3Q 460.50000000000017-34  463.85000000000014-40.1Q 467.20000000000016-46.2  473.0500000000001-49.6Q 478.90000000000015-53  486.20000000000016-53L 486.20000000000016-53Q 493.50000000000017-53  499.3000000000001-49.6Q 505.10000000000014-46.2  508.40000000000015-40.15Q 511.70000000000016-34.1  511.70000000000016-26.3L 511.70000000000016-26.3ZM 486.20000000000016-46.9Q 478.60000000000014-46.9  473.45000000000016-42.05Q 468.3000000000001-37.2  467.60000000000014-29.4L 467.60000000000014-29.4L 504.90000000000015-29.4Q 504.20000000000016-37.2  499.0500000000001-42.05Q 493.90000000000015-46.9  486.20000000000016-46.9L 486.20000000000016-46.9ZM 573.2 0.6Q 565.4 0.6  558.25-1.9Q 551.1-4.4  547.2-8.5L 547.2-8.5L 550.1-14.2Q 553.9-10.4  560.2-8.05Q 566.5-5.7  573.2-5.7L 573.2-5.7Q 582.6-5.7  587.3-9.15Q 592-12.6  592-18.1L 592-18.1Q 592-22.3  589.45-24.8Q 586.9-27.3  583.2-28.65Q 579.5-30  572.9-31.6L 572.9-31.6Q 565-33.6  560.3-35.45Q 555.6-37.3  552.25-41.1Q 548.9-44.9  548.9-51.4L 548.9-51.4Q 548.9-56.7  551.7-61.05Q 554.5-65.4  560.3-68Q 566.1-70.6  574.7-70.6L 574.7-70.6Q 580.7-70.6  586.45-68.95Q 592.2-67.3  596.4-64.4L 596.4-64.4L 593.9-58.5Q 589.5-61.4  584.5-62.85Q 579.5-64.3  574.7-64.3L 574.7-64.3Q 565.5-64.3  560.85-60.75Q 556.2-57.2  556.2-51.6L 556.2-51.6Q 556.2-47.4  558.75-44.85Q 561.3-42.3  565.15-40.95Q 569-39.6  575.5-38L 575.5-38Q 583.2-36.1  587.95-34.25Q 592.7-32.4  596-28.65Q 599.3-24.9  599.3-18.5L 599.3-18.5Q 599.3-13.2  596.45-8.85Q 593.6-4.5  587.7-1.95Q 581.8 0.6  573.2 0.6L 573.2 0.6ZM 635.4 0.5Q 627.8 0.5  621.7-2.95Q 615.6-6.4  612.1-12.5Q 608.6-18.6  608.6-26.3L 608.6-26.3Q 608.6-34  612.1-40.1Q 615.6-46.2  621.7-49.6Q 627.8-53  635.4-53L 635.4-53Q 643-53  649.1-49.6Q 655.2-46.2  658.65-40.1Q 662.1-34  662.1-26.3L 662.1-26.3Q 662.1-18.6  658.65-12.5Q 655.2-6.4  649.1-2.95Q 643 0.5  635.4 0.5L 635.4 0.5ZM 635.4-5.8Q 641-5.8  645.45-8.35Q 649.9-10.9  652.4-15.6Q 654.9-20.3  654.9-26.3L 654.9-26.3Q 654.9-32.3  652.4-37Q 649.9-41.7  645.45-44.25Q 641-46.8  635.4-46.8L 635.4-46.8Q 629.8-46.8  625.35-44.25Q 620.9-41.7  618.35-37Q 615.8-32.3  615.8-26.3L 615.8-26.3Q 615.8-20.3  618.35-15.6Q 620.9-10.9  625.35-8.35Q 629.8-5.8  635.4-5.8L 635.4-5.8ZM 676.5999999999999 0L 676.5999999999999-74.2L 683.6999999999999-74.2L 683.6999999999999 0L 676.5999999999999 0ZM 743.8000000000001-52.6L 750.9-52.6L 750.9 0L 744.1 0L 744.1-9.6Q 741.3000000000001-4.8  736.4-2.15Q 731.5 0.5  725.2 0.5L 725.2 0.5Q 714.9 0.5  708.95-5.25Q 703-11  703-22.1L 703-22.1L 703-52.6L 710.1-52.6L 710.1-22.8Q 710.1-14.5  714.2-10.2Q 718.3000000000001-5.9  725.9-5.9L 725.9-5.9Q 734.2-5.9  739-10.95Q 743.8000000000001-16  743.8000000000001-25L 743.8000000000001-25L 743.8000000000001-52.6ZM 796.0000000000001-8.3L 798.5000000000001-3.2Q 796.5000000000001-1.4  793.5500000000001-0.45Q 790.6000000000001 0.5  787.4000000000001 0.5L 787.4000000000001 0.5Q 780.0000000000001 0.5  776.0000000000001-3.5Q 772.0000000000001-7.5  772.0000000000001-14.8L 772.0000000000001-14.8L 772.0000000000001-46.6L 762.6000000000001-46.6L 762.6000000000001-52.6L 772.0000000000001-52.6L 772.0000000000001-64.1L 779.1000000000001-64.1L 779.1000000000001-52.6L 795.1000000000001-52.6L 795.1000000000001-46.6L 779.1000000000001-46.6L 779.1000000000001-15.2Q 779.1000000000001-10.5  781.45-8.05Q 783.8000000000001-5.6  788.2-5.6L 788.2-5.6Q 790.4000000000001-5.6  792.45-6.3Q 794.5000000000001-7  796.0000000000001-8.3L 796.0000000000001-8.3ZM 811.3999999999999 0L 811.3999999999999-52.6L 818.4999999999999-52.6L 818.4999999999999 0L 811.3999999999999 0ZM 814.9999999999999-64.1Q 812.7999999999998-64.1  811.2999999999998-65.6Q 809.7999999999998-67.1  809.7999999999998-69.2L 809.7999999999998-69.2Q 809.7999999999998-71.2  811.2999999999998-72.7Q 812.7999999999998-74.2  814.9999999999999-74.2L 814.9999999999999-74.2Q 817.1999999999999-74.2  818.6999999999999-72.75Q 820.1999999999999-71.3  820.1999999999999-69.3L 820.1999999999999-69.3Q 820.1999999999999-67.1  818.6999999999999-65.6Q 817.1999999999999-64.1  814.9999999999999-64.1L 814.9999999999999-64.1ZM 859.7999999999998 0.5Q 852.1999999999998 0.5  846.0999999999999-2.95Q 839.9999999999999-6.4  836.4999999999999-12.5Q 832.9999999999999-18.6  832.9999999999999-26.3L 832.9999999999999-26.3Q 832.9999999999999-34  836.4999999999999-40.1Q 839.9999999999999-46.2  846.0999999999999-49.6Q 852.1999999999998-53  859.7999999999998-53L 859.7999999999998-53Q 867.3999999999999-53  873.4999999999999-49.6Q 879.5999999999999-46.2  883.0499999999998-40.1Q 886.4999999999999-34  886.4999999999999-26.3L 886.4999999999999-26.3Q 886.4999999999999-18.6  883.0499999999998-12.5Q 879.5999999999999-6.4  873.4999999999999-2.95Q 867.3999999999999 0.5  859.7999999999998 0.5L 859.7999999999998 0.5ZM 859.7999999999998-5.8Q 865.3999999999999-5.8  869.8499999999999-8.35Q 874.2999999999998-10.9  876.7999999999998-15.6Q 879.2999999999998-20.3  879.2999999999998-26.3L 879.2999999999998-26.3Q 879.2999999999998-32.3  876.7999999999998-37Q 874.2999999999998-41.7  869.8499999999999-44.25Q 865.3999999999999-46.8  859.7999999999998-46.8L 859.7999999999998-46.8Q 854.1999999999998-46.8  849.7499999999999-44.25Q 845.2999999999998-41.7  842.7499999999999-37Q 840.1999999999998-32.3  840.1999999999998-26.3L 840.1999999999998-26.3Q 840.1999999999998-20.3  842.7499999999999-15.6Q 845.2999999999998-10.9  849.7499999999999-8.35Q 854.1999999999998-5.8  859.7999999999998-5.8L 859.7999999999998-5.8ZM 927.7999999999998-53Q 937.6999999999998-53  943.5499999999998-47.25Q 949.3999999999997-41.5  949.3999999999997-30.5L 949.3999999999997-30.5L 949.3999999999997 0L 942.2999999999998 0L 942.2999999999998-29.8Q 942.2999999999998-38  938.1999999999998-42.3Q 934.0999999999998-46.6  926.4999999999998-46.6L 926.4999999999998-46.6Q 917.9999999999998-46.6  913.0499999999998-41.55Q 908.0999999999998-36.5  908.0999999999998-27.6L 908.0999999999998-27.6L 908.0999999999998 0L 900.9999999999998 0L 900.9999999999998-52.6L 907.7999999999998-52.6L 907.7999999999998-42.9Q 910.6999999999998-47.7  915.8499999999998-50.35Q 920.9999999999998-53  927.7999999999998-53L 927.7999999999998-53ZM 982.7999999999998 0.5Q 976.3999999999999 0.5  970.5499999999998-1.35Q 964.6999999999998-3.2  961.3999999999999-6L 961.3999999999999-6L 964.5999999999998-11.6Q 967.8999999999999-9  972.8999999999999-7.35Q 977.8999999999999-5.7  983.2999999999998-5.7L 983.2999999999998-5.7Q 990.4999999999999-5.7  993.9499999999998-7.95Q 997.3999999999999-10.2  997.3999999999999-14.3L 997.3999999999999-14.3Q 997.3999999999999-17.2  995.4999999999999-18.85Q 993.5999999999998-20.5  990.6999999999998-21.35Q 987.7999999999998-22.2  982.9999999999999-23L 982.9999999999999-23Q 976.5999999999998-24.2  972.6999999999998-25.45Q 968.7999999999998-26.7  966.0499999999998-29.7Q 963.2999999999998-32.7  963.2999999999998-38L 963.2999999999998-38Q 963.2999999999998-44.6  968.7999999999998-48.8Q 974.2999999999998-53  984.0999999999998-53L 984.0999999999998-53Q 989.1999999999998-53  994.2999999999998-51.65Q 999.3999999999999-50.3  1002.6999999999998-48.1L 1002.6999999999998-48.1L 999.5999999999998-42.4Q 993.0999999999998-46.9  984.0999999999998-46.9L 984.0999999999998-46.9Q 977.2999999999998-46.9  973.8499999999998-44.5Q 970.3999999999999-42.1  970.3999999999999-38.2L 970.3999999999999-38.2Q 970.3999999999999-35.2  972.3499999999998-33.4Q 974.2999999999998-31.6  977.1999999999998-30.75Q 980.0999999999998-29.9  985.1999999999998-29L 985.1999999999998-29Q 991.4999999999999-27.8  995.2999999999998-26.6Q 999.0999999999998-25.4  1001.7999999999998-22.5Q 1004.4999999999999-19.6  1004.4999999999999-14.5L 1004.4999999999999-14.5Q 1004.4999999999999-7.6  998.7499999999999-3.55Q 992.9999999999999 0.5  982.7999999999998 0.5L 982.7999999999998 0.5Z"
                          transform="translate(0,0)" fill="url('#lgEnterpriseSolutions')"/>
                </g>
            </svg>
        </g>
    </g>
</svg>