<svg preserveAspectRatio="xMidYMid meet" data-bbox="46.5 53.605 107.001 91.997" viewBox="46.5 53.605 107.001 91.997" height="200" width="200" xmlns="http://www.w3.org/2000/svg" data-type="color" role="img" aria-labelledby="comp-k5mu77ma-svgtitle"><title id="comp-k5mu77ma-svgtitle"></title>
    <g>
        <path d="M141.796 86.941a30.774 30.774 0 0 0-.177-7.123c-1.952-13.646-12.874-24.335-26.565-25.994-10.476-1.27-20.894 3.049-27.478 11.251-.064-.012-.126-.036-.19-.047a19.332 19.332 0 0 0-14.551 3.201 19.356 19.356 0 0 0-8.32 15.934h-.11c-8.505 0-15.979 6.104-17.506 14.675-1.717 9.649 2.179 18.062 10.421 22.504l.255.137c2.832 1.536 5.028 2.729 20.843 2.729 3.766 0 8.31-.067 13.813-.215a1.722 1.722 0 0 0 1.677-1.768c-.027-.951-.893-1.743-1.767-1.678-27.693.734-30.116-.579-32.924-2.1l-.262-.142c-6.97-3.756-10.127-10.63-8.662-18.864 1.333-7.484 8.3-12.643 15.834-11.727a1.746 1.746 0 0 0 1.412-.482c.372-.367.559-.884.507-1.405a16.033 16.033 0 0 1 .155-4.436 15.932 15.932 0 0 1 6.606-10.336c3.511-2.448 7.766-3.389 11.976-2.633a15.964 15.964 0 0 1 7.574 3.596 1.725 1.725 0 0 0 2.241-2.622c-1.617-1.383-3.456-2.447-5.408-3.233 5.868-6.568 14.626-9.99 23.451-8.917 12.146 1.472 21.838 10.954 23.565 23.059.337 2.345.362 4.741.055 7.224l-.05.285a1.725 1.725 0 0 0 1.138 1.868c7.035 2.467 11.489 9.634 10.594 17.043-1.008 8.311-8.595 14.126-18 13.974-4.946-.112-17.411-.157-23.995-.165h-.002a1.725 1.725 0 0 0-.003 3.449c6.571.007 19.003.052 23.92.162.195.005.389.007.581.007 10.96 0 19.715-7.079 20.918-17.013 1.034-8.534-3.78-16.807-11.566-20.198z" fill="#ffffff" data-color="1"></path>
        <path d="M106.018 135.241l-4.23 4.375V92.128c0-.951-.774-1.726-1.724-1.726s-1.724.774-1.724 1.726v47.488l-4.23-4.375a1.724 1.724 0 0 0-2.476 2.397l7.192 7.439c.002.003.007.004.009.006a1.713 1.713 0 0 0 2.456 0l.009-.006 7.192-7.439a1.724 1.724 0 0 0-.04-2.437 1.719 1.719 0 0 0-2.434.04z" fill="#ffffff" data-color="1"></path>
    </g>
</svg>
