<svg preserveAspectRatio="xMidYMid meet" data-bbox="28.001 35.6 199 150" viewBox="28.001 35.6 199 150"
     xmlns="http://www.w3.org/2000/svg" data-type="color" role="img"
     aria-labelledby="comp-k5mu76ce-svgtitle">
    <title id="comp-k5mu76ce-svgtitle"></title>
    <g transform="scale(1.3)">
        <path d="M82 149.423h-6v-7.488l1.201-.898c.074-.056 7.799-5.967 7.799-12.581v-11.981h6v11.981c0 7.719-6.293 14.032-9 16.39v4.577z"
              fill="#ffffff" data-color="1"></path>
        <path d="M31.004 149.423l-.003-44.93c0-7.275 2.634-10.215 6.973-14.187L53.125 78.19l3.75 4.68-15 11.981C38.017 98.393 37 99.833 37 104.492l.003 44.93h-5.999z"
              fill="#ffffff" data-color="1"></path>
        <path fill="#ffffff" d="M88 164.4h-6v-11.981H34.001V164.4h-6v-17.972H88V164.4z" data-color="1"></path>
        <path d="M58 137.442v-5.991c4.104 0 9-1.559 9-8.986v-10.226l8.279-8.269c3.061-3.978 1.368-9.761-1.178-12.037-1.204-1.074-1.635-.646-1.98-.298l-24 23.963-4.242-4.236 24-23.963c2.912-2.908 6.926-2.881 10.224.07 4.983 4.452 6.937 13.912 1.77 20.365l-.223.246-6.65 6.64v7.746c0 11.053-8.08 14.976-15 14.976z"
              fill="#ffffff" data-color="1"></path>
        <path fill="#ffffff" d="M171.999 119.47H70v-5.991h95.999V41.591H58v59.907h-5.999V35.6h119.998v83.87z"
              data-color="1"></path>
        <path fill="#ffffff"
              d="M152.499 65.553H71.5L52.601 40.391l4.799-3.592 17.1 22.764h74.999L166.6 36.799l4.799 3.592-18.9 25.162z"
              data-color="1"></path>
        <path fill="#ffffff" d="M121 47.581v5.991h-18v-5.991h18z" data-color="1"></path>
    </g>
</svg>
